<?xml version="1.0" encoding="UTF-8" standalone="no"?>
<svg
   xmlns:dc="http://purl.org/dc/elements/1.1/"
   xmlns:cc="http://creativecommons.org/ns#"
   xmlns:rdf="http://www.w3.org/1999/02/22-rdf-syntax-ns#"
   xmlns:svg="http://www.w3.org/2000/svg"
   xmlns="http://www.w3.org/2000/svg"
   xmlns:sodipodi="http://sodipodi.sourceforge.net/DTD/sodipodi-0.dtd"
   xmlns:inkscape="http://www.inkscape.org/namespaces/inkscape"
   width="921.25983"
   height="1647.6377"
   id="svg3004"
   version="1.1"
   inkscape:version="0.48.2 r9819"
   sodipodi:docname="case-mk-i.svg"
   inkscape:export-filename="/home/phil/src/atreus/preview.png"
   inkscape:export-xdpi="90"
   inkscape:export-ydpi="90">
  <metadata
     id="metadata4705">
    <rdf:RDF>
      <cc:Work
         rdf:about="">
        <dc:format>image/svg+xml</dc:format>
        <dc:type
           rdf:resource="http://purl.org/dc/dcmitype/StillImage" />
        <dc:title></dc:title>
      </cc:Work>
    </rdf:RDF>
  </metadata>
  <sodipodi:namedview
     pagecolor="#ffffff"
     bordercolor="#666666"
     borderopacity="1"
     objecttolerance="10"
     gridtolerance="10"
     guidetolerance="10"
     inkscape:pageopacity="0"
     inkscape:pageshadow="2"
     inkscape:window-width="1759"
     inkscape:window-height="1088"
     id="namedview4703"
     showgrid="false"
     inkscape:document-units="mm"
     units="mm"
     inkscape:zoom="1.124532"
     inkscape:cx="455.66853"
     inkscape:cy="1253.7268"
     inkscape:window-x="0"
     inkscape:window-y="0"
     inkscape:window-maximized="0"
     inkscape:current-layer="g3114"
     showguides="true"
     inkscape:guide-bbox="true" />
  <desc
     id="desc3006">/home/phil/ErgoDOX Case Layer 3 Plate - Left.dxf - scale = 1.000000</desc>
  <defs
     id="defs3008">
    <marker
       refY="0"
       refX="0"
       style="overflow:visible"
       id="DistanceX"
       orient="auto">
      <path
         style="stroke:#000000;stroke-width:0.5"
         d="M 3,-3 -3,3 M 0,-5 0,5"
         id="path3011"
         inkscape:connector-curvature="0" />
    </marker>
    <pattern
       height="8"
       width="8"
       patternUnits="userSpaceOnUse"
       y="0"
       x="0"
       id="Hatch">
      <path
         linecap="square"
         stroke="#000000"
         stroke-width="0.25"
         d="M8 4 l-4,4"
         id="path3014" />
      <path
         linecap="square"
         stroke="#000000"
         stroke-width="0.25"
         d="M6 2 l-4,4"
         id="path3016" />
      <path
         linecap="square"
         stroke="#000000"
         stroke-width="0.25"
         d="M4 0 l-4,4"
         id="path3018" />
    </pattern>
    <symbol
       id="*Model_Space" />
    <symbol
       id="*Paper_Space" />
    <symbol
       id="*Paper_Space0" />
  </defs>
  <g
     inkscape:label="All together"
     inkscape:groupmode="layer"
     id="g3023"
     transform="translate(0,595.27583)"
     style="display:none">
    <g
       id="g3317"
       transform="matrix(0.98480775,0.17364818,-0.17364818,0.98480775,155.10068,-53.3287)">
      <path
         inkscape:connector-curvature="0"
         d="m 393.74701,754.32463 0,-3.474 m 2.88001,3.474 -2.88001,0 m 2.88001,12.402 0,-12.402 m -2.88001,12.402 2.88001,0 m -2.88001,17.748 0,-17.748 m 2.88001,17.748 -2.88001,0 m 2.88001,12.402 0,-12.402 m -2.88001,12.402 2.88001,0 m -2.88001,3.474 0,-3.474 m -49.50013,3.474 49.50013,0 m -49.50013,-3.474 0,3.474 m -2.88001,-3.474 2.88001,0 m -2.88001,-12.402 0,12.402 m 2.88001,-12.402 -2.88001,0 m 2.88001,-17.748 0,17.748 m -2.88001,-17.748 2.88001,0 m -2.88001,-12.402 0,12.402 m 2.88001,-12.402 -2.88001,0 m 2.88001,-3.474 0,3.474 m 49.50013,-3.474 -49.50013,0"
         style="fill:none;stroke:#ff0000;stroke-width:1.00000131"
         id="path3223" />
      <path
         inkscape:connector-curvature="0"
         d="m 191.24646,934.96987 0,-3.474 m 2.88001,3.474 -2.88001,0 m 2.88001,12.402 0,-12.402 m -2.88001,12.402 2.88001,0 m -2.88001,17.748 0,-17.748 m 2.88001,17.748 -2.88001,0 m 2.88001,12.402 0,-12.402 m -2.88001,12.402 2.88001,0 m -2.88001,3.474 0,-3.474 m -49.50013,3.474 49.50013,0 m -49.50013,-3.474 0,3.474 m -2.88001,-3.474 2.88001,0 m -2.88001,-12.402 0,12.402 m 2.88001,-12.402 -2.88001,0 m 2.88001,-17.748 0,17.748 m -2.88001,-17.748 2.88001,0 m -2.88001,-12.402 0,12.402 m 2.88001,-12.402 -2.88001,0 m 2.88001,-3.474 0,3.474 m 49.50013,-3.474 -49.50013,0"
         style="fill:none;stroke:#ff0000;stroke-width:1.00000131"
         id="path3583" />
      <path
         inkscape:connector-curvature="0"
         d="m 123.74628,743.91896 0,-3.474 m 2.88001,3.474 -2.88001,0 m 2.88001,12.402 0,-12.402 m -2.88001,12.402 2.88001,0 m -2.88001,17.748 0,-17.748 m 2.88001,17.748 -2.88001,0 m 2.88001,12.402 0,-12.402 m -2.88001,12.402 2.88001,0 m -2.88001,3.474 0,-3.474 m -49.50013,3.474 49.50013,0 m -49.50013,-3.474 0,3.474 m -2.880008,-3.474 2.880008,0 m -2.880008,-12.402 0,12.402 m 2.880008,-12.402 -2.880008,0 m 2.880008,-17.748 0,17.748 m -2.880008,-17.748 2.880008,0 m -2.880008,-12.402 0,12.402 m 2.880008,-12.402 -2.880008,0 m 2.880008,-3.474 0,3.474 m 49.50013,-3.474 -49.50013,0"
         style="fill:none;stroke:#ff0000;stroke-width:1.00000131"
         id="path3623" />
      <path
         inkscape:connector-curvature="0"
         d="m 258.74665,714.75333 0,-3.474 m 2.88,3.474 -2.88,0 m 2.88,12.402 0,-12.402 m -2.88,12.402 2.88,0 m -2.88,17.748 0,-17.748 m 2.88,17.748 -2.88,0 m 2.88,12.402 0,-12.402 m -2.88,12.402 2.88,0 m -2.88,3.474 0,-3.474 m -49.50014,3.474 49.50014,0 m -49.50014,-3.474 0,3.474 m -2.88001,-3.474 2.88001,0 m -2.88001,-12.402 0,12.402 m 2.88001,-12.402 -2.88001,0 m 2.88001,-17.748 0,17.748 m -2.88001,-17.748 2.88001,0 m -2.88001,-12.402 0,12.402 m 2.88001,-12.402 -2.88001,0 m 2.88001,-3.474 0,3.474 m 49.50014,-3.474 -49.50014,0"
         style="fill:none;stroke:#ff0000;stroke-width:1.00000131"
         id="path3663" />
      <path
         inkscape:connector-curvature="0"
         d="m 326.24683,732.46987 0,-3.474 m 2.88001,3.474 -2.88001,0 m 2.88001,12.402 0,-12.402 m -2.88001,12.402 2.88001,0 m -2.88001,17.748 0,-17.748 m 2.88001,17.748 -2.88001,0 m 2.88001,12.402 0,-12.402 m -2.88001,12.402 2.88001,0 m -2.88001,3.474 0,-3.474 m -49.50014,3.474 49.50014,0 m -49.50014,-3.474 0,3.474 m -2.88,-3.474 2.88,0 m -2.88,-12.402 0,12.402 m 2.88,-12.402 -2.88,0 m 2.88,-17.748 0,17.748 m -2.88,-17.748 2.88,0 m -2.88,-12.402 0,12.402 m 2.88,-12.402 -2.88,0 m 2.88,-3.474 0,3.474 m 49.50014,-3.474 -49.50014,0"
         style="fill:none;stroke:#ff0000;stroke-width:1.00000131"
         id="path3703" />
      <path
         inkscape:connector-curvature="0"
         d="m 123.74628,811.41896 0,-3.474 m 2.88001,3.474 -2.88001,0 m 2.88001,12.402 0,-12.402 m -2.88001,12.402 2.88001,0 m -2.88001,17.748 0,-17.748 m 2.88001,17.748 -2.88001,0 m 2.88001,12.402 0,-12.402 m -2.88001,12.402 2.88001,0 m -2.88001,3.474 0,-3.474 m -49.50013,3.474 49.50013,0 m -49.50013,-3.474 0,3.474 m -2.880008,-3.474 2.880008,0 m -2.880008,-12.402 0,12.402 m 2.880008,-12.402 -2.880008,0 m 2.880008,-17.748 0,17.748 m -2.880008,-17.748 2.880008,0 m -2.880008,-12.402 0,12.402 m 2.880008,-12.402 -2.880008,0 m 2.880008,-3.474 0,3.474 m 49.50013,-3.474 -49.50013,0"
         style="fill:none;stroke:#ff0000;stroke-width:1.00000131"
         id="path3743" />
      <path
         inkscape:connector-curvature="0"
         d="m 191.24646,799.96987 0,-3.474 m 2.88001,3.474 -2.88001,0 m 2.88001,12.402 0,-12.402 m -2.88001,12.402 2.88001,0 m -2.88001,17.748 0,-17.748 m 2.88001,17.748 -2.88001,0 m 2.88001,12.402 0,-12.402 m -2.88001,12.402 2.88001,0 m -2.88001,3.474 0,-3.474 m -49.50013,3.474 49.50013,0 m -49.50013,-3.474 0,3.474 m -2.88001,-3.474 2.88001,0 m -2.88001,-12.402 0,12.402 m 2.88001,-12.402 -2.88001,0 m 2.88001,-17.748 0,17.748 m -2.88001,-17.748 2.88001,0 m -2.88001,-12.402 0,12.402 m 2.88001,-12.402 -2.88001,0 m 2.88001,-3.474 0,3.474 m 49.50013,-3.474 -49.50013,0"
         style="fill:none;stroke:#ff0000;stroke-width:1.00000131"
         id="path3783" />
      <path
         inkscape:connector-curvature="0"
         d="m 258.74665,782.25333 0,-3.474 m 2.88,3.474 -2.88,0 m 2.88,12.402 0,-12.402 m -2.88,12.402 2.88,0 m -2.88,17.748 0,-17.748 m 2.88,17.748 -2.88,0 m 2.88,12.402 0,-12.402 m -2.88,12.402 2.88,0 m -2.88,3.474 0,-3.474 m -49.50014,3.474 49.50014,0 m -49.50014,-3.474 0,3.474 m -2.88001,-3.474 2.88001,0 m -2.88001,-12.402 0,12.402 m 2.88001,-12.402 -2.88001,0 m 2.88001,-17.748 0,17.748 m -2.88001,-17.748 2.88001,0 m -2.88001,-12.402 0,12.402 m 2.88001,-12.402 -2.88001,0 m 2.88001,-3.474 0,3.474 m 49.50014,-3.474 -49.50014,0"
         style="fill:none;stroke:#ff0000;stroke-width:1.00000131"
         id="path3823" />
      <path
         inkscape:connector-curvature="0"
         d="m 326.24683,799.96987 0,-3.474 m 2.88001,3.474 -2.88001,0 m 2.88001,12.402 0,-12.402 m -2.88001,12.402 2.88001,0 m -2.88001,17.748 0,-17.748 m 2.88001,17.748 -2.88001,0 m 2.88001,12.402 0,-12.402 m -2.88001,12.402 2.88001,0 m -2.88001,3.474 0,-3.474 m -49.50014,3.474 49.50014,0 m -49.50014,-3.474 0,3.474 m -2.88,-3.474 2.88,0 m -2.88,-12.402 0,12.402 m 2.88,-12.402 -2.88,0 m 2.88,-17.748 0,17.748 m -2.88,-17.748 2.88,0 m -2.88,-12.402 0,12.402 m 2.88,-12.402 -2.88,0 m 2.88,-3.474 0,3.474 m 49.50014,-3.474 -49.50014,0"
         style="fill:none;stroke:#ff0000;stroke-width:1.00000131"
         id="path3863" />
      <path
         inkscape:connector-curvature="0"
         d="m 393.74701,821.82463 0,-3.474 m 2.88001,3.474 -2.88001,0 m 2.88001,12.402 0,-12.402 m -2.88001,12.402 2.88001,0 m -2.88001,17.748 0,-17.748 m 2.88001,17.748 -2.88001,0 m 2.88001,12.402 0,-12.402 m -2.88001,12.402 2.88001,0 m -2.88001,3.474 0,-3.474 m -49.50013,3.474 49.50013,0 m -49.50013,-3.474 0,3.474 m -2.88001,-3.474 2.88001,0 m -2.88001,-12.402 0,12.402 m 2.88001,-12.402 -2.88001,0 m 2.88001,-17.748 0,17.748 m -2.88001,-17.748 2.88001,0 m -2.88001,-12.402 0,12.402 m 2.88001,-12.402 -2.88001,0 m 2.88001,-3.474 0,3.474 m 49.50013,-3.474 -49.50013,0"
         style="fill:none;stroke:#ff0000;stroke-width:1.00000131"
         id="path3903" />
      <path
         inkscape:connector-curvature="0"
         d="m 123.74628,878.91896 0,-3.474 m 2.88001,3.474 -2.88001,0 m 2.88001,12.402 0,-12.402 m -2.88001,12.402 2.88001,0 m -2.88001,17.748 0,-17.748 m 2.88001,17.748 -2.88001,0 m 2.88001,12.402 0,-12.402 m -2.88001,12.402 2.88001,0 m -2.88001,3.474 0,-3.474 m -49.50013,3.474 49.50013,0 m -49.50013,-3.474 0,3.474 m -2.880008,-3.474 2.880008,0 m -2.880008,-12.402 0,12.402 m 2.880008,-12.402 -2.880008,0 m 2.880008,-17.748 0,17.748 m -2.880008,-17.748 2.880008,0 m -2.880008,-12.402 0,12.402 m 2.880008,-12.402 -2.880008,0 m 2.880008,-3.474 0,3.474 m 49.50013,-3.474 -49.50013,0"
         style="fill:none;stroke:#ff0000;stroke-width:1.00000131"
         id="path3943" />
      <path
         inkscape:connector-curvature="0"
         d="m 191.24646,867.46987 0,-3.474 m 2.88001,3.474 -2.88001,0 m 2.88001,12.402 0,-12.402 m -2.88001,12.402 2.88001,0 m -2.88001,17.748 0,-17.748 m 2.88001,17.748 -2.88001,0 m 2.88001,12.402 0,-12.402 m -2.88001,12.402 2.88001,0 m -2.88001,3.474 0,-3.474 m -49.50013,3.474 49.50013,0 m -49.50013,-3.474 0,3.474 m -2.88001,-3.474 2.88001,0 m -2.88001,-12.402 0,12.402 m 2.88001,-12.402 -2.88001,0 m 2.88001,-17.748 0,17.748 m -2.88001,-17.748 2.88001,0 m -2.88001,-12.402 0,12.402 m 2.88001,-12.402 -2.88001,0 m 2.88001,-3.474 0,3.474 m 49.50013,-3.474 -49.50013,0"
         style="fill:none;stroke:#ff0000;stroke-width:1.00000131"
         id="path3983" />
      <path
         inkscape:connector-curvature="0"
         d="m 258.74665,849.75333 0,-3.474 m 2.88,3.474 -2.88,0 m 2.88,12.402 0,-12.402 m -2.88,12.402 2.88,0 m -2.88,17.748 0,-17.748 m 2.88,17.748 -2.88,0 m 2.88,12.402 0,-12.402 m -2.88,12.402 2.88,0 m -2.88,3.474 0,-3.474 m -49.50014,3.474 49.50014,0 m -49.50014,-3.474 0,3.474 m -2.88001,-3.474 2.88001,0 m -2.88001,-12.402 0,12.402 m 2.88001,-12.402 -2.88001,0 m 2.88001,-17.748 0,17.748 m -2.88001,-17.748 2.88001,0 m -2.88001,-12.402 0,12.402 m 2.88001,-12.402 -2.88001,0 m 2.88001,-3.474 0,3.474 m 49.50014,-3.474 -49.50014,0"
         style="fill:none;stroke:#ff0000;stroke-width:1.00000131"
         id="path4023" />
      <path
         inkscape:connector-curvature="0"
         d="m 326.24683,867.46987 0,-3.474 m 2.88001,3.474 -2.88001,0 m 2.88001,12.402 0,-12.402 m -2.88001,12.402 2.88001,0 m -2.88001,17.748 0,-17.748 m 2.88001,17.748 -2.88001,0 m 2.88001,12.402 0,-12.402 m -2.88001,12.402 2.88001,0 m -2.88001,3.474 0,-3.474 m -49.50014,3.474 49.50014,0 m -49.50014,-3.474 0,3.474 m -2.88,-3.474 2.88,0 m -2.88,-12.402 0,12.402 m 2.88,-12.402 -2.88,0 m 2.88,-17.748 0,17.748 m -2.88,-17.748 2.88,0 m -2.88,-12.402 0,12.402 m 2.88,-12.402 -2.88,0 m 2.88,-3.474 0,3.474 m 49.50014,-3.474 -49.50014,0"
         style="fill:none;stroke:#ff0000;stroke-width:1.00000131"
         id="path4063" />
      <path
         inkscape:connector-curvature="0"
         d="m 393.74701,889.32463 0,-3.474 m 2.88001,3.474 -2.88001,0 m 2.88001,12.402 0,-12.402 m -2.88001,12.402 2.88001,0 m -2.88001,17.748 0,-17.748 m 2.88001,17.748 -2.88001,0 m 2.88001,12.402 0,-12.402 m -2.88001,12.402 2.88001,0 m -2.88001,3.474 0,-3.474 m -49.50013,3.474 49.50013,0 m -49.50013,-3.474 0,3.474 m -2.88001,-3.474 2.88001,0 m -2.88001,-12.402 0,12.402 m 2.88001,-12.402 -2.88001,0 m 2.88001,-17.748 0,17.748 m -2.88001,-17.748 2.88001,0 m -2.88001,-12.402 0,12.402 m 2.88001,-12.402 -2.88001,0 m 2.88001,-3.474 0,3.474 m 49.50013,-3.474 -49.50013,0"
         style="fill:none;stroke:#ff0000;stroke-width:1.00000131"
         id="path4103" />
      <path
         inkscape:connector-curvature="0"
         d="m 123.74628,946.41896 0,-3.474 m 2.88001,3.474 -2.88001,0 m 2.88001,12.402 0,-12.402 m -2.88001,12.402 2.88001,0 m -2.88001,17.748 0,-17.748 m 2.88001,17.748 -2.88001,0 m 2.88001,12.402 0,-12.402 m -2.88001,12.402 2.88001,0 m -2.88001,3.474 0,-3.474 m -49.50013,3.474 49.50013,0 m -49.50013,-3.474 0,3.474 m -2.880008,-3.474 2.880008,0 m -2.880008,-12.402 0,12.402 m 2.880008,-12.402 -2.880008,0 m 2.880008,-17.748 0,17.748 m -2.880008,-17.748 2.880008,0 m -2.880008,-12.402 0,12.402 m 2.880008,-12.402 -2.880008,0 m 2.880008,-3.474 0,3.474 m 49.50013,-3.474 -49.50013,0"
         style="fill:none;stroke:#ff0000;stroke-width:1.00000131"
         id="path4143" />
      <path
         inkscape:connector-curvature="0"
         d="m 258.74665,917.25333 0,-3.474 m 2.88,3.474 -2.88,0 m 2.88,12.402 0,-12.402 m -2.88,12.402 2.88,0 m -2.88,17.748 0,-17.748 m 2.88,17.748 -2.88,0 m 2.88,12.402 0,-12.402 m -2.88,12.402 2.88,0 m -2.88,3.474 0,-3.474 m -49.50014,3.474 49.50014,0 m -49.50014,-3.474 0,3.474 m -2.88001,-3.474 2.88001,0 m -2.88001,-12.402 0,12.402 m 2.88001,-12.402 -2.88001,0 m 2.88001,-17.748 0,17.748 m -2.88001,-17.748 2.88001,0 m -2.88001,-12.402 0,12.402 m 2.88001,-12.402 -2.88001,0 m 2.88001,-3.474 0,3.474 m 49.50014,-3.474 -49.50014,0"
         style="fill:none;stroke:#ff0000;stroke-width:1.00000131"
         id="path4183" />
      <path
         inkscape:connector-curvature="0"
         d="m 326.24683,934.96987 0,-3.474 m 2.88001,3.474 -2.88001,0 m 2.88001,12.402 0,-12.402 m -2.88001,12.402 2.88001,0 m -2.88001,17.748 0,-17.748 m 2.88001,17.748 -2.88001,0 m 2.88001,12.402 0,-12.402 m -2.88001,12.402 2.88001,0 m -2.88001,3.474 0,-3.474 m -49.50014,3.474 49.50014,0 m -49.50014,-3.474 0,3.474 m -2.88,-3.474 2.88,0 m -2.88,-12.402 0,12.402 m 2.88,-12.402 -2.88,0 m 2.88,-17.748 0,17.748 m -2.88,-17.748 2.88,0 m -2.88,-12.402 0,12.402 m 2.88,-12.402 -2.88,0 m 2.88,-3.474 0,3.474 m 49.50014,-3.474 -49.50014,0"
         style="fill:none;stroke:#ff0000;stroke-width:1.00000131"
         id="path4223" />
      <path
         inkscape:connector-curvature="0"
         d="m 191.24646,732.46987 0,-3.474 m 2.88001,3.474 -2.88001,0 m 2.88001,12.402 0,-12.402 m -2.88001,12.402 2.88001,0 m -2.88001,17.748 0,-17.748 m 2.88001,17.748 -2.88001,0 m 2.88001,12.402 0,-12.402 m -2.88001,12.402 2.88001,0 m -2.88001,3.474 0,-3.474 m -49.50013,3.474 49.50013,0 m -49.50013,-3.474 0,3.474 m -2.88001,-3.474 2.88001,0 m -2.88001,-12.402 0,12.402 m 2.88001,-12.402 -2.88001,0 m 2.88001,-17.748 0,17.748 m -2.88001,-17.748 2.88001,0 m -2.88001,-12.402 0,12.402 m 2.88001,-12.402 -2.88001,0 m 2.88001,-3.474 0,3.474 m 49.50013,-3.474 -49.50013,0"
         style="fill:none;stroke:#ff0000;stroke-width:1.00000131"
         id="path4343" />
      <path
         inkscape:connector-curvature="0"
         id="path5501"
         style="fill:none;stroke:#ff0000;stroke-width:1.00000131"
         d="m 394.48378,952.6864 0,-3.474 m 2.88001,3.474 -2.88001,0 m 2.88001,12.402 0,-12.402 m -2.88001,12.402 2.88001,0 m -2.88001,17.748 0,-17.748 m 2.88001,17.748 -2.88001,0 m 2.88001,12.402 0,-12.402 m -2.88001,12.402 2.88001,0 m -2.88001,3.474 0,-3.474 m -49.50013,3.474 49.50013,0 m -49.50013,-3.474 0,3.474 m -2.88001,-3.474 2.88001,0 m -2.88001,-12.402 0,12.402 m 2.88001,-12.402 -2.88001,0 m 2.88001,-17.748 0,17.748 m -2.88001,-17.748 2.88001,0 m -2.88001,-12.402 0,12.402 m 2.88001,-12.402 -2.88001,0 m 2.88001,-3.474 0,3.474 m 49.50013,-3.474 -49.50013,0" />
    </g>
    <path
       style="fill:none;stroke:#ff0000;stroke-width:1.22030044;stroke-miterlimit:4;stroke-opacity:1"
       d="m 60.452094,645.49182 800.578346,0 c 13.51828,0 23.08336,20.68759 24.80315,46.25518 l 17.10642,254.31572 c 1.71979,25.56759 -322.48578,87.97258 -336.00406,87.97258 l -212.59842,0 c -13.51828,0 -337.723816,-62.40497 -336.004027,-87.97258 L 35.439889,691.747 c 1.719788,-25.5676 11.493925,-46.25518 25.012205,-46.25518 z"
       id="rect6039"
       inkscape:connector-curvature="0"
       sodipodi:nodetypes="sssssssss" />
    <path
       sodipodi:type="arc"
       style="fill:none;stroke:#ff0000;stroke-width:2.71440148;stroke-miterlimit:4;stroke-opacity:1;stroke-dasharray:none"
       id="path3402"
       sodipodi:cx="205.06096"
       sodipodi:cy="1105.1703"
       sodipodi:rx="14.142136"
       sodipodi:ry="14.142136"
       d="m 219.20309,1105.1703 c 0,7.8105 -6.33165,14.1421 -14.14213,14.1421 -7.81049,0 -14.14214,-6.3316 -14.14214,-14.1421 0,-7.8105 6.33165,-14.1421 14.14214,-14.1421 7.81048,0 14.14213,6.3316 14.14213,14.1421 z"
       transform="matrix(0.38063606,0,0,0.38063606,335.32633,239.57427)" />
    <path
       transform="matrix(0.38063606,0,0,0.38063606,-19.004383,246.66088)"
       d="m 219.20309,1105.1703 c 0,7.8105 -6.33165,14.1421 -14.14213,14.1421 -7.81049,0 -14.14214,-6.3316 -14.14214,-14.1421 0,-7.8105 6.33165,-14.1421 14.14214,-14.1421 7.81048,0 14.14213,6.3316 14.14213,14.1421 z"
       sodipodi:ry="14.142136"
       sodipodi:rx="14.142136"
       sodipodi:cy="1105.1703"
       sodipodi:cx="205.06096"
       id="path4178"
       style="fill:none;stroke:#ff0000;stroke-width:2.71440148;stroke-miterlimit:4;stroke-opacity:1;stroke-dasharray:none"
       sodipodi:type="arc" />
    <path
       transform="matrix(0.38063606,0,0,0.38063606,430.99562,239.57427)"
       d="m 219.20309,1105.1703 c 0,7.8105 -6.33165,14.1421 -14.14213,14.1421 -7.81049,0 -14.14214,-6.3316 -14.14214,-14.1421 0,-7.8105 6.33165,-14.1421 14.14214,-14.1421 7.81048,0 14.14213,6.3316 14.14213,14.1421 z"
       sodipodi:ry="14.142136"
       sodipodi:rx="14.142136"
       sodipodi:cy="1105.1703"
       sodipodi:cx="205.06096"
       id="path4180"
       style="fill:none;stroke:#ff0000;stroke-width:2.71440148;stroke-miterlimit:4;stroke-opacity:1;stroke-dasharray:none"
       sodipodi:type="arc" />
    <path
       sodipodi:type="arc"
       style="fill:none;stroke:#ff0000;stroke-width:2.71440148;stroke-miterlimit:4;stroke-opacity:1;stroke-dasharray:none"
       id="path4182"
       sodipodi:cx="205.06096"
       sodipodi:cy="1105.1703"
       sodipodi:rx="14.142136"
       sodipodi:ry="14.142136"
       d="m 219.20309,1105.1703 c 0,7.8105 -6.33165,14.1421 -14.14213,14.1421 -7.81049,0 -14.14214,-6.3316 -14.14214,-14.1421 0,-7.8105 6.33165,-14.1421 14.14214,-14.1421 7.81048,0 14.14213,6.3316 14.14213,14.1421 z"
       transform="matrix(0.38063606,0,0,0.38063606,636.50743,569.10175)" />
    <path
       transform="matrix(0.40309815,0,0,0.3796237,781.05221,247.76554)"
       d="m 219.20309,1105.1703 c 0,7.8105 -6.33165,14.1421 -14.14213,14.1421 -7.81049,0 -14.14214,-6.3316 -14.14214,-14.1421 0,-7.8105 6.33165,-14.1421 14.14214,-14.1421 7.81048,0 14.14213,6.3316 14.14213,14.1421 z"
       sodipodi:ry="14.142136"
       sodipodi:rx="14.142136"
       sodipodi:cy="1105.1703"
       sodipodi:cx="205.06096"
       id="path4184"
       style="fill:none;stroke:#ff0000;stroke-width:2.71440148;stroke-miterlimit:4;stroke-opacity:1;stroke-dasharray:none"
       sodipodi:type="arc" />
    <path
       sodipodi:type="arc"
       style="fill:none;stroke:#ff0000;stroke-width:2.71440148;stroke-miterlimit:4;stroke-opacity:1;stroke-dasharray:none"
       id="path4186"
       sodipodi:cx="205.06096"
       sodipodi:cy="1105.1703"
       sodipodi:rx="14.142136"
       sodipodi:ry="14.142136"
       d="m 219.20309,1105.1703 c 0,7.8105 -6.33165,14.1421 -14.14213,14.1421 -7.81049,0 -14.14214,-6.3316 -14.14214,-14.1421 0,-7.8105 6.33165,-14.1421 14.14214,-14.1421 7.81048,0 14.14213,6.3316 14.14213,14.1421 z"
       transform="matrix(0.38063606,0,0,0.38063606,140.44444,568.90332)" />
    <g
       transform="matrix(-0.98480775,0.17364818,0.17364818,0.98480775,768.79497,-54.076345)"
       id="g5584">
      <path
         id="path5586"
         style="fill:none;stroke:#ff0000;stroke-width:1.00000131"
         d="m 393.74701,754.32463 0,-3.474 m 2.88001,3.474 -2.88001,0 m 2.88001,12.402 0,-12.402 m -2.88001,12.402 2.88001,0 m -2.88001,17.748 0,-17.748 m 2.88001,17.748 -2.88001,0 m 2.88001,12.402 0,-12.402 m -2.88001,12.402 2.88001,0 m -2.88001,3.474 0,-3.474 m -49.50013,3.474 49.50013,0 m -49.50013,-3.474 0,3.474 m -2.88001,-3.474 2.88001,0 m -2.88001,-12.402 0,12.402 m 2.88001,-12.402 -2.88001,0 m 2.88001,-17.748 0,17.748 m -2.88001,-17.748 2.88001,0 m -2.88001,-12.402 0,12.402 m 2.88001,-12.402 -2.88001,0 m 2.88001,-3.474 0,3.474 m 49.50013,-3.474 -49.50013,0"
         inkscape:connector-curvature="0" />
      <path
         id="path5588"
         style="fill:none;stroke:#ff0000;stroke-width:1.00000131"
         d="m 191.24646,934.96987 0,-3.474 m 2.88001,3.474 -2.88001,0 m 2.88001,12.402 0,-12.402 m -2.88001,12.402 2.88001,0 m -2.88001,17.748 0,-17.748 m 2.88001,17.748 -2.88001,0 m 2.88001,12.402 0,-12.402 m -2.88001,12.402 2.88001,0 m -2.88001,3.474 0,-3.474 m -49.50013,3.474 49.50013,0 m -49.50013,-3.474 0,3.474 m -2.88001,-3.474 2.88001,0 m -2.88001,-12.402 0,12.402 m 2.88001,-12.402 -2.88001,0 m 2.88001,-17.748 0,17.748 m -2.88001,-17.748 2.88001,0 m -2.88001,-12.402 0,12.402 m 2.88001,-12.402 -2.88001,0 m 2.88001,-3.474 0,3.474 m 49.50013,-3.474 -49.50013,0"
         inkscape:connector-curvature="0" />
      <path
         id="path5590"
         style="fill:none;stroke:#ff0000;stroke-width:1.00000131"
         d="m 123.74628,743.91896 0,-3.474 m 2.88001,3.474 -2.88001,0 m 2.88001,12.402 0,-12.402 m -2.88001,12.402 2.88001,0 m -2.88001,17.748 0,-17.748 m 2.88001,17.748 -2.88001,0 m 2.88001,12.402 0,-12.402 m -2.88001,12.402 2.88001,0 m -2.88001,3.474 0,-3.474 m -49.50013,3.474 49.50013,0 m -49.50013,-3.474 0,3.474 m -2.880008,-3.474 2.880008,0 m -2.880008,-12.402 0,12.402 m 2.880008,-12.402 -2.880008,0 m 2.880008,-17.748 0,17.748 m -2.880008,-17.748 2.880008,0 m -2.880008,-12.402 0,12.402 m 2.880008,-12.402 -2.880008,0 m 2.880008,-3.474 0,3.474 m 49.50013,-3.474 -49.50013,0"
         inkscape:connector-curvature="0" />
      <path
         id="path5592"
         style="fill:none;stroke:#ff0000;stroke-width:1.00000131"
         d="m 258.74665,714.75333 0,-3.474 m 2.88,3.474 -2.88,0 m 2.88,12.402 0,-12.402 m -2.88,12.402 2.88,0 m -2.88,17.748 0,-17.748 m 2.88,17.748 -2.88,0 m 2.88,12.402 0,-12.402 m -2.88,12.402 2.88,0 m -2.88,3.474 0,-3.474 m -49.50014,3.474 49.50014,0 m -49.50014,-3.474 0,3.474 m -2.88001,-3.474 2.88001,0 m -2.88001,-12.402 0,12.402 m 2.88001,-12.402 -2.88001,0 m 2.88001,-17.748 0,17.748 m -2.88001,-17.748 2.88001,0 m -2.88001,-12.402 0,12.402 m 2.88001,-12.402 -2.88001,0 m 2.88001,-3.474 0,3.474 m 49.50014,-3.474 -49.50014,0"
         inkscape:connector-curvature="0" />
      <path
         id="path5594"
         style="fill:none;stroke:#ff0000;stroke-width:1.00000131"
         d="m 326.24683,732.46987 0,-3.474 m 2.88001,3.474 -2.88001,0 m 2.88001,12.402 0,-12.402 m -2.88001,12.402 2.88001,0 m -2.88001,17.748 0,-17.748 m 2.88001,17.748 -2.88001,0 m 2.88001,12.402 0,-12.402 m -2.88001,12.402 2.88001,0 m -2.88001,3.474 0,-3.474 m -49.50014,3.474 49.50014,0 m -49.50014,-3.474 0,3.474 m -2.88,-3.474 2.88,0 m -2.88,-12.402 0,12.402 m 2.88,-12.402 -2.88,0 m 2.88,-17.748 0,17.748 m -2.88,-17.748 2.88,0 m -2.88,-12.402 0,12.402 m 2.88,-12.402 -2.88,0 m 2.88,-3.474 0,3.474 m 49.50014,-3.474 -49.50014,0"
         inkscape:connector-curvature="0" />
      <path
         id="path5596"
         style="fill:none;stroke:#ff0000;stroke-width:1.00000131"
         d="m 123.74628,811.41896 0,-3.474 m 2.88001,3.474 -2.88001,0 m 2.88001,12.402 0,-12.402 m -2.88001,12.402 2.88001,0 m -2.88001,17.748 0,-17.748 m 2.88001,17.748 -2.88001,0 m 2.88001,12.402 0,-12.402 m -2.88001,12.402 2.88001,0 m -2.88001,3.474 0,-3.474 m -49.50013,3.474 49.50013,0 m -49.50013,-3.474 0,3.474 m -2.880008,-3.474 2.880008,0 m -2.880008,-12.402 0,12.402 m 2.880008,-12.402 -2.880008,0 m 2.880008,-17.748 0,17.748 m -2.880008,-17.748 2.880008,0 m -2.880008,-12.402 0,12.402 m 2.880008,-12.402 -2.880008,0 m 2.880008,-3.474 0,3.474 m 49.50013,-3.474 -49.50013,0"
         inkscape:connector-curvature="0" />
      <path
         id="path5598"
         style="fill:none;stroke:#ff0000;stroke-width:1.00000131"
         d="m 191.24646,799.96987 0,-3.474 m 2.88001,3.474 -2.88001,0 m 2.88001,12.402 0,-12.402 m -2.88001,12.402 2.88001,0 m -2.88001,17.748 0,-17.748 m 2.88001,17.748 -2.88001,0 m 2.88001,12.402 0,-12.402 m -2.88001,12.402 2.88001,0 m -2.88001,3.474 0,-3.474 m -49.50013,3.474 49.50013,0 m -49.50013,-3.474 0,3.474 m -2.88001,-3.474 2.88001,0 m -2.88001,-12.402 0,12.402 m 2.88001,-12.402 -2.88001,0 m 2.88001,-17.748 0,17.748 m -2.88001,-17.748 2.88001,0 m -2.88001,-12.402 0,12.402 m 2.88001,-12.402 -2.88001,0 m 2.88001,-3.474 0,3.474 m 49.50013,-3.474 -49.50013,0"
         inkscape:connector-curvature="0" />
      <path
         id="path5600"
         style="fill:none;stroke:#ff0000;stroke-width:1.00000131"
         d="m 258.74665,782.25333 0,-3.474 m 2.88,3.474 -2.88,0 m 2.88,12.402 0,-12.402 m -2.88,12.402 2.88,0 m -2.88,17.748 0,-17.748 m 2.88,17.748 -2.88,0 m 2.88,12.402 0,-12.402 m -2.88,12.402 2.88,0 m -2.88,3.474 0,-3.474 m -49.50014,3.474 49.50014,0 m -49.50014,-3.474 0,3.474 m -2.88001,-3.474 2.88001,0 m -2.88001,-12.402 0,12.402 m 2.88001,-12.402 -2.88001,0 m 2.88001,-17.748 0,17.748 m -2.88001,-17.748 2.88001,0 m -2.88001,-12.402 0,12.402 m 2.88001,-12.402 -2.88001,0 m 2.88001,-3.474 0,3.474 m 49.50014,-3.474 -49.50014,0"
         inkscape:connector-curvature="0" />
      <path
         id="path5602"
         style="fill:none;stroke:#ff0000;stroke-width:1.00000131"
         d="m 326.24683,799.96987 0,-3.474 m 2.88001,3.474 -2.88001,0 m 2.88001,12.402 0,-12.402 m -2.88001,12.402 2.88001,0 m -2.88001,17.748 0,-17.748 m 2.88001,17.748 -2.88001,0 m 2.88001,12.402 0,-12.402 m -2.88001,12.402 2.88001,0 m -2.88001,3.474 0,-3.474 m -49.50014,3.474 49.50014,0 m -49.50014,-3.474 0,3.474 m -2.88,-3.474 2.88,0 m -2.88,-12.402 0,12.402 m 2.88,-12.402 -2.88,0 m 2.88,-17.748 0,17.748 m -2.88,-17.748 2.88,0 m -2.88,-12.402 0,12.402 m 2.88,-12.402 -2.88,0 m 2.88,-3.474 0,3.474 m 49.50014,-3.474 -49.50014,0"
         inkscape:connector-curvature="0" />
      <path
         id="path5604"
         style="fill:none;stroke:#ff0000;stroke-width:1.00000131"
         d="m 393.74701,821.82463 0,-3.474 m 2.88001,3.474 -2.88001,0 m 2.88001,12.402 0,-12.402 m -2.88001,12.402 2.88001,0 m -2.88001,17.748 0,-17.748 m 2.88001,17.748 -2.88001,0 m 2.88001,12.402 0,-12.402 m -2.88001,12.402 2.88001,0 m -2.88001,3.474 0,-3.474 m -49.50013,3.474 49.50013,0 m -49.50013,-3.474 0,3.474 m -2.88001,-3.474 2.88001,0 m -2.88001,-12.402 0,12.402 m 2.88001,-12.402 -2.88001,0 m 2.88001,-17.748 0,17.748 m -2.88001,-17.748 2.88001,0 m -2.88001,-12.402 0,12.402 m 2.88001,-12.402 -2.88001,0 m 2.88001,-3.474 0,3.474 m 49.50013,-3.474 -49.50013,0"
         inkscape:connector-curvature="0" />
      <path
         id="path5606"
         style="fill:none;stroke:#ff0000;stroke-width:1.00000131"
         d="m 123.74628,878.91896 0,-3.474 m 2.88001,3.474 -2.88001,0 m 2.88001,12.402 0,-12.402 m -2.88001,12.402 2.88001,0 m -2.88001,17.748 0,-17.748 m 2.88001,17.748 -2.88001,0 m 2.88001,12.402 0,-12.402 m -2.88001,12.402 2.88001,0 m -2.88001,3.474 0,-3.474 m -49.50013,3.474 49.50013,0 m -49.50013,-3.474 0,3.474 m -2.880008,-3.474 2.880008,0 m -2.880008,-12.402 0,12.402 m 2.880008,-12.402 -2.880008,0 m 2.880008,-17.748 0,17.748 m -2.880008,-17.748 2.880008,0 m -2.880008,-12.402 0,12.402 m 2.880008,-12.402 -2.880008,0 m 2.880008,-3.474 0,3.474 m 49.50013,-3.474 -49.50013,0"
         inkscape:connector-curvature="0" />
      <path
         id="path5608"
         style="fill:none;stroke:#ff0000;stroke-width:1.00000131"
         d="m 191.24646,867.46987 0,-3.474 m 2.88001,3.474 -2.88001,0 m 2.88001,12.402 0,-12.402 m -2.88001,12.402 2.88001,0 m -2.88001,17.748 0,-17.748 m 2.88001,17.748 -2.88001,0 m 2.88001,12.402 0,-12.402 m -2.88001,12.402 2.88001,0 m -2.88001,3.474 0,-3.474 m -49.50013,3.474 49.50013,0 m -49.50013,-3.474 0,3.474 m -2.88001,-3.474 2.88001,0 m -2.88001,-12.402 0,12.402 m 2.88001,-12.402 -2.88001,0 m 2.88001,-17.748 0,17.748 m -2.88001,-17.748 2.88001,0 m -2.88001,-12.402 0,12.402 m 2.88001,-12.402 -2.88001,0 m 2.88001,-3.474 0,3.474 m 49.50013,-3.474 -49.50013,0"
         inkscape:connector-curvature="0" />
      <path
         id="path5610"
         style="fill:none;stroke:#ff0000;stroke-width:1.00000131"
         d="m 258.74665,849.75333 0,-3.474 m 2.88,3.474 -2.88,0 m 2.88,12.402 0,-12.402 m -2.88,12.402 2.88,0 m -2.88,17.748 0,-17.748 m 2.88,17.748 -2.88,0 m 2.88,12.402 0,-12.402 m -2.88,12.402 2.88,0 m -2.88,3.474 0,-3.474 m -49.50014,3.474 49.50014,0 m -49.50014,-3.474 0,3.474 m -2.88001,-3.474 2.88001,0 m -2.88001,-12.402 0,12.402 m 2.88001,-12.402 -2.88001,0 m 2.88001,-17.748 0,17.748 m -2.88001,-17.748 2.88001,0 m -2.88001,-12.402 0,12.402 m 2.88001,-12.402 -2.88001,0 m 2.88001,-3.474 0,3.474 m 49.50014,-3.474 -49.50014,0"
         inkscape:connector-curvature="0" />
      <path
         id="path5612"
         style="fill:none;stroke:#ff0000;stroke-width:1.00000131"
         d="m 326.24683,867.46987 0,-3.474 m 2.88001,3.474 -2.88001,0 m 2.88001,12.402 0,-12.402 m -2.88001,12.402 2.88001,0 m -2.88001,17.748 0,-17.748 m 2.88001,17.748 -2.88001,0 m 2.88001,12.402 0,-12.402 m -2.88001,12.402 2.88001,0 m -2.88001,3.474 0,-3.474 m -49.50014,3.474 49.50014,0 m -49.50014,-3.474 0,3.474 m -2.88,-3.474 2.88,0 m -2.88,-12.402 0,12.402 m 2.88,-12.402 -2.88,0 m 2.88,-17.748 0,17.748 m -2.88,-17.748 2.88,0 m -2.88,-12.402 0,12.402 m 2.88,-12.402 -2.88,0 m 2.88,-3.474 0,3.474 m 49.50014,-3.474 -49.50014,0"
         inkscape:connector-curvature="0" />
      <path
         id="path5614"
         style="fill:none;stroke:#ff0000;stroke-width:1.00000131"
         d="m 393.74701,889.32463 0,-3.474 m 2.88001,3.474 -2.88001,0 m 2.88001,12.402 0,-12.402 m -2.88001,12.402 2.88001,0 m -2.88001,17.748 0,-17.748 m 2.88001,17.748 -2.88001,0 m 2.88001,12.402 0,-12.402 m -2.88001,12.402 2.88001,0 m -2.88001,3.474 0,-3.474 m -49.50013,3.474 49.50013,0 m -49.50013,-3.474 0,3.474 m -2.88001,-3.474 2.88001,0 m -2.88001,-12.402 0,12.402 m 2.88001,-12.402 -2.88001,0 m 2.88001,-17.748 0,17.748 m -2.88001,-17.748 2.88001,0 m -2.88001,-12.402 0,12.402 m 2.88001,-12.402 -2.88001,0 m 2.88001,-3.474 0,3.474 m 49.50013,-3.474 -49.50013,0"
         inkscape:connector-curvature="0" />
      <path
         id="path5616"
         style="fill:none;stroke:#ff0000;stroke-width:1.00000131"
         d="m 123.74628,946.41896 0,-3.474 m 2.88001,3.474 -2.88001,0 m 2.88001,12.402 0,-12.402 m -2.88001,12.402 2.88001,0 m -2.88001,17.748 0,-17.748 m 2.88001,17.748 -2.88001,0 m 2.88001,12.402 0,-12.402 m -2.88001,12.402 2.88001,0 m -2.88001,3.474 0,-3.474 m -49.50013,3.474 49.50013,0 m -49.50013,-3.474 0,3.474 m -2.880008,-3.474 2.880008,0 m -2.880008,-12.402 0,12.402 m 2.880008,-12.402 -2.880008,0 m 2.880008,-17.748 0,17.748 m -2.880008,-17.748 2.880008,0 m -2.880008,-12.402 0,12.402 m 2.880008,-12.402 -2.880008,0 m 2.880008,-3.474 0,3.474 m 49.50013,-3.474 -49.50013,0"
         inkscape:connector-curvature="0" />
      <path
         id="path5618"
         style="fill:none;stroke:#ff0000;stroke-width:1.00000131"
         d="m 258.74665,917.25333 0,-3.474 m 2.88,3.474 -2.88,0 m 2.88,12.402 0,-12.402 m -2.88,12.402 2.88,0 m -2.88,17.748 0,-17.748 m 2.88,17.748 -2.88,0 m 2.88,12.402 0,-12.402 m -2.88,12.402 2.88,0 m -2.88,3.474 0,-3.474 m -49.50014,3.474 49.50014,0 m -49.50014,-3.474 0,3.474 m -2.88001,-3.474 2.88001,0 m -2.88001,-12.402 0,12.402 m 2.88001,-12.402 -2.88001,0 m 2.88001,-17.748 0,17.748 m -2.88001,-17.748 2.88001,0 m -2.88001,-12.402 0,12.402 m 2.88001,-12.402 -2.88001,0 m 2.88001,-3.474 0,3.474 m 49.50014,-3.474 -49.50014,0"
         inkscape:connector-curvature="0" />
      <path
         id="path5620"
         style="fill:none;stroke:#ff0000;stroke-width:1.00000131"
         d="m 326.24683,934.96987 0,-3.474 m 2.88001,3.474 -2.88001,0 m 2.88001,12.402 0,-12.402 m -2.88001,12.402 2.88001,0 m -2.88001,17.748 0,-17.748 m 2.88001,17.748 -2.88001,0 m 2.88001,12.402 0,-12.402 m -2.88001,12.402 2.88001,0 m -2.88001,3.474 0,-3.474 m -49.50014,3.474 49.50014,0 m -49.50014,-3.474 0,3.474 m -2.88,-3.474 2.88,0 m -2.88,-12.402 0,12.402 m 2.88,-12.402 -2.88,0 m 2.88,-17.748 0,17.748 m -2.88,-17.748 2.88,0 m -2.88,-12.402 0,12.402 m 2.88,-12.402 -2.88,0 m 2.88,-3.474 0,3.474 m 49.50014,-3.474 -49.50014,0"
         inkscape:connector-curvature="0" />
      <path
         id="path5622"
         style="fill:none;stroke:#ff0000;stroke-width:1.00000131"
         d="m 191.24646,732.46987 0,-3.474 m 2.88001,3.474 -2.88001,0 m 2.88001,12.402 0,-12.402 m -2.88001,12.402 2.88001,0 m -2.88001,17.748 0,-17.748 m 2.88001,17.748 -2.88001,0 m 2.88001,12.402 0,-12.402 m -2.88001,12.402 2.88001,0 m -2.88001,3.474 0,-3.474 m -49.50013,3.474 49.50013,0 m -49.50013,-3.474 0,3.474 m -2.88001,-3.474 2.88001,0 m -2.88001,-12.402 0,12.402 m 2.88001,-12.402 -2.88001,0 m 2.88001,-17.748 0,17.748 m -2.88001,-17.748 2.88001,0 m -2.88001,-12.402 0,12.402 m 2.88001,-12.402 -2.88001,0 m 2.88001,-3.474 0,3.474 m 49.50013,-3.474 -49.50013,0"
         inkscape:connector-curvature="0" />
      <path
         d="m 394.48378,952.6864 0,-3.474 m 2.88001,3.474 -2.88001,0 m 2.88001,12.402 0,-12.402 m -2.88001,12.402 2.88001,0 m -2.88001,17.748 0,-17.748 m 2.88001,17.748 -2.88001,0 m 2.88001,12.402 0,-12.402 m -2.88001,12.402 2.88001,0 m -2.88001,3.474 0,-3.474 m -49.50013,3.474 49.50013,0 m -49.50013,-3.474 0,3.474 m -2.88001,-3.474 2.88001,0 m -2.88001,-12.402 0,12.402 m 2.88001,-12.402 -2.88001,0 m 2.88001,-17.748 0,17.748 m -2.88001,-17.748 2.88001,0 m -2.88001,-12.402 0,12.402 m 2.88001,-12.402 -2.88001,0 m 2.88001,-3.474 0,3.474 m 49.50013,-3.474 -49.50013,0"
         style="fill:none;stroke:#ff0000;stroke-width:1.00000131"
         id="path5624"
         inkscape:connector-curvature="0" />
    </g>
    <path
       sodipodi:nodetypes="sssssssss"
       inkscape:connector-curvature="0"
       id="path5626"
       d="m 76.130373,680.13734 768.999087,0 c 12.43777,0 14.19685,16.98175 15.89416,37.92142 l 17.188,212.04778 c 1.69731,20.93969 -307.34112,70.87686 -319.7789,70.87686 l -195.60564,0 c -12.43777,0 -321.527989,-49.94164 -319.778859,-70.87686 L 60.764732,718.05876 c 1.749127,-20.9352 2.927864,-37.92142 15.365641,-37.92142 z"
       style="fill:none;stroke:#ff0000;stroke-width:1.05983841;stroke-miterlimit:4;stroke-opacity:1" />
    <path
       style="fill:none;stroke:#ff0000;stroke-width:1px;stroke-linecap:butt;stroke-linejoin:miter;stroke-opacity:1;display:inline"
       d="m 463.61024,1006.341 87.36404,0.2851 57.15009,-9.9242 62.21069,-29.95767 80.94101,-13.41191 69.15722,0.0391 49.58498,-9.13724 8.6385,-11.18364 -43.25459,-253.60413 -150.14452,-6.34632 -48.94575,7.29369 -136.27537,65.12292 16.83225,135.95609 -53.25855,17.45608 -2.98032,0 -53.25863,-17.45608 16.8323,-135.95609 -136.2754,-65.12292 -48.94574,-7.29369 -150.14447,6.34632 -43.25459,253.60413 8.638497,11.18364 49.584983,9.13724 69.15721,-0.0391 80.94097,13.41191 62.21067,29.95767 57.15007,9.9242 87.36413,-0.2851 z"
       id="path4456"
       inkscape:connector-curvature="0"
       sodipodi:nodetypes="ccccccccccccccccccccccccccccc" />
    <g
       transform="translate(0,-1.2e-4)"
       id="g4442"
       style="font-size:32px;font-style:normal;font-variant:normal;font-weight:normal;font-stretch:normal;line-height:125%;letter-spacing:0px;word-spacing:0px;fill:none;stroke:#ff0000;stroke-width:0.99921262;stroke-miterlimit:4;stroke-opacity:1;display:inline;font-family:Anonymous Pro for Powerline;-inkscape-font-specification:Anonymous Pro for Powerline">
      <path
         sodipodi:nodetypes="ccccccc"
         inkscape:connector-curvature="0"
         id="path4444"
         d="m 426.28766,709.04321 -2.29688,0 c -2.27946,-9.45081 -8.92476,-9.09451 -11.875,0 l -2.29687,0 6.78125,-20.39062 2.90625,0 6.78125,20.39062" />
      <path
         inkscape:connector-curvature="0"
         id="path4446"
         d="m 442.80328,695.54321 -1.82812,0 0,-5.0625 -4.375,0 0,16.73438 3.28125,0 0,1.82812 -8.73438,0 0,-1.82812 3.29688,0 0,-16.73438 -4.375,0 0,5.0625 -1.82813,0 0,-6.89062 14.5625,0 0,6.89062" />
      <path
         sodipodi:nodetypes="ccccccccsccccccccscccsccc"
         inkscape:connector-curvature="0"
         id="path4448"
         d="m 460.49078,709.04321 -2.71875,0 -5.95312,-8.73437 -3.17188,0 0,8.73437 -2.14062,0 c 0,-3.39844 0,-7.16351 0,-10.56195 l 2.14062,-5.5e-4 4.57813,0 c 1.49999,10e-6 2.67707,-0.31249 3.53125,-0.9375 0.86457,-0.6354 1.29686,-1.65623 1.29687,-3.0625 m 0,0 c -10e-6,-1.3854 -0.4323,-2.39581 -1.29687,-3.03125 -0.85418,-0.64581 -2.03126,-0.96873 -3.53125,-0.96875 l -4.57813,0 -2.14062,-2.3e-4 0,-1.82789 6.71875,0 c 2.23957,2e-5 3.97395,0.4896 5.20312,1.46875 1.22916,0.96877 1.84374,2.42189 1.84375,4.35937 -10e-6,0.85418 -0.15105,1.62502 -0.45312,2.3125 -0.3021,0.6771 -0.71356,1.25522 -1.23438,1.73438 -0.52084,0.47917 -1.14584,0.86459 -1.875,1.15625 -0.71876,0.29167 -1.50521,0.46876 -2.35937,0.53125 l 6.14062,8.82812" />
      <path
         inkscape:connector-curvature="0"
         id="path4450"
         d="m 477.03766,709.04321 -13.03125,0 0,-20.39062 13.03125,0 0,1.82812 -10.89063,0 0,7.29688 8.03125,0 0,1.82812 -8.03125,0 0,7.60938 10.89063,0 0,1.82812" />
      <path
         inkscape:connector-curvature="0"
         id="path4452"
         d="m 494.53766,701.77759 c -2e-5,1.15625 -0.13022,2.20313 -0.39063,3.14062 -0.25001,0.93751 -0.64584,1.73959 -1.1875,2.40625 -0.53126,0.65625 -1.20834,1.16667 -2.03125,1.53125 -0.82292,0.36459 -1.79688,0.54688 -2.92187,0.54688 -1.13542,0 -2.11459,-0.18229 -2.9375,-0.54688 -0.8125,-0.36458 -1.48438,-0.875 -2.01563,-1.53125 -0.52083,-0.66666 -0.91146,-1.47395 -1.17187,-2.42187 -0.25,-0.94791 -0.375,-2 -0.375,-3.15625 l 0,-13.09375 2.14062,0 0,13.125 c 0,0.61459 0.0521,1.26563 0.15625,1.95312 0.11458,0.68751 0.32813,1.31251 0.64063,1.875 0.32291,0.56251 0.76562,1.03126 1.32812,1.40625 0.57291,0.375 1.31771,0.5625 2.23438,0.5625 0.91666,0 1.66145,-0.1875 2.23437,-0.5625 0.58333,-0.37499 1.03124,-0.84374 1.34375,-1.40625 0.32291,-0.56249 0.53645,-1.18749 0.64063,-1.875 0.10415,-0.68749 0.15624,-1.33853 0.15625,-1.95312 l 0,-13.125 2.15625,0 0,13.125" />
      <path
         inkscape:connector-curvature="0"
         id="path4454"
         d="m 512.28766,703.73071 c -2e-5,0.85417 -0.1771,1.63021 -0.53125,2.32813 -0.35418,0.6875 -0.82814,1.28125 -1.42188,1.78125 -0.59376,0.5 -1.27605,0.88541 -2.04687,1.15625 -0.77084,0.27083 -1.57293,0.40625 -2.40625,0.40625 -1.14584,0 -2.19792,-0.21354 -3.15625,-0.64063 -0.95834,-0.42708 -1.71875,-1.05729 -2.28125,-1.89062 l 0,2.17187 -1.8125,0 0,-6.20312 1.8125,0 c 0,0.69792 0.16145,1.33854 0.48437,1.92187 0.32292,0.57292 0.73438,1.06771 1.23438,1.48438 0.49999,0.41667 1.07291,0.74479 1.71875,0.98437 0.65624,0.22917 1.32291,0.34375 2,0.34375 0.60416,0 1.16145,-0.0833 1.67187,-0.25 0.51041,-0.17708 0.95833,-0.42187 1.34375,-0.73437 0.38541,-0.32292 0.68749,-0.71354 0.90625,-1.17188 0.22916,-0.45833 0.34374,-0.97916 0.34375,-1.5625 -10e-6,-0.65624 -0.14584,-1.21874 -0.4375,-1.6875 -0.28126,-0.46874 -0.66667,-0.86978 -1.15625,-1.20312 -0.47917,-0.33333 -1.02084,-0.61458 -1.625,-0.84375 -0.60417,-0.23958 -1.21875,-0.47395 -1.84375,-0.70313 -0.73959,-0.2604 -1.47917,-0.53124 -2.21875,-0.8125 -0.73958,-0.29165 -1.40104,-0.65624 -1.98437,-1.09375 -0.58334,-0.43749 -1.05729,-0.96873 -1.42188,-1.59375 -0.36458,-0.6354 -0.54687,-1.42186 -0.54687,-2.35937 0,-0.83332 0.17708,-1.5729 0.53125,-2.21875 0.35416,-0.65623 0.81771,-1.20832 1.39062,-1.65625 0.57292,-0.4479 1.23958,-0.78644 2,-1.01563 0.76042,-0.23956 1.54166,-0.35935 2.34375,-0.35937 0.98958,2e-5 1.90104,0.20314 2.73438,0.60937 0.84374,0.40627 1.49999,1.02606 1.96875,1.85938 l 0,-2.125 1.89062,0 0,5.82812 -1.89062,0 c -1e-5,-0.61457 -0.13022,-1.18748 -0.39063,-1.71875 -0.25001,-0.54165 -0.59376,-0.99998 -1.03125,-1.375 -0.43751,-0.3854 -0.93751,-0.68748 -1.5,-0.90625 -0.5625,-0.22914 -1.15625,-0.34373 -1.78125,-0.34375 -0.55209,2e-5 -1.07813,0.0625 -1.57812,0.1875 -0.50001,0.12502 -0.93751,0.32815 -1.3125,0.60938 -0.375,0.27085 -0.67709,0.62502 -0.90625,1.0625 -0.21875,0.43751 -0.32813,0.95835 -0.32813,1.5625 0,0.53126 0.13021,0.98439 0.39063,1.35937 0.27083,0.37502 0.6302,0.70835 1.07812,1 0.44792,0.28127 0.96354,0.54168 1.54688,0.78125 0.59374,0.22918 1.19791,0.46356 1.8125,0.70313 0.77082,0.27084 1.53645,0.57293 2.29687,0.90625 0.76041,0.33334 1.4427,0.73438 2.04688,1.20312 0.60415,0.46876 1.09894,1.04689 1.48437,1.73438 0.38541,0.67709 0.57811,1.50521 0.57813,2.48437" />
    </g>
  </g>
  <g
     style="display:inline"
     transform="translate(0,595.27583)"
     id="g5832"
     inkscape:groupmode="layer"
     inkscape:label="Plate">
    <path
       sodipodi:nodetypes="sssssssss"
       inkscape:connector-curvature="0"
       id="path5876"
       d="m 60.452094,-582.50818 800.578346,0 c 13.51828,0 23.08336,20.68759 24.80315,46.25518 l 17.10642,254.31572 c 1.71979,25.56759 -322.48578,87.97258 -336.00406,87.97258 l -212.59842,0 c -13.51828,0 -337.723816,-62.40497 -336.004027,-87.97258 L 35.439889,-536.253 c 1.719788,-25.5676 11.493925,-46.25518 25.012205,-46.25518 z"
       style="fill:none;stroke:#ff0000;stroke-width:1.22030044;stroke-miterlimit:4;stroke-opacity:1" />
    <path
       transform="matrix(0.38063606,0,0,0.38063606,335.32633,-988.42573)"
       d="m 219.20309,1105.1703 a 14.142136,14.142136 0 1 1 -28.28427,0 14.142136,14.142136 0 1 1 28.28427,0 z"
       sodipodi:ry="14.142136"
       sodipodi:rx="14.142136"
       sodipodi:cy="1105.1703"
       sodipodi:cx="205.06096"
       id="path5878"
       style="fill:none;stroke:#ff0000;stroke-width:2.71440148;stroke-miterlimit:4;stroke-opacity:1;stroke-dasharray:none"
       sodipodi:type="arc" />
    <path
       sodipodi:type="arc"
       style="fill:none;stroke:#ff0000;stroke-width:2.71440148;stroke-miterlimit:4;stroke-opacity:1;stroke-dasharray:none"
       id="path5880"
       sodipodi:cx="205.06096"
       sodipodi:cy="1105.1703"
       sodipodi:rx="14.142136"
       sodipodi:ry="14.142136"
       d="m 219.20309,1105.1703 a 14.142136,14.142136 0 1 1 -28.28427,0 14.142136,14.142136 0 1 1 28.28427,0 z"
       transform="matrix(0.38063606,0,0,0.38063606,-19.004383,-981.33912)" />
    <path
       sodipodi:type="arc"
       style="fill:none;stroke:#ff0000;stroke-width:2.71440148;stroke-miterlimit:4;stroke-opacity:1;stroke-dasharray:none"
       id="path5882"
       sodipodi:cx="205.06096"
       sodipodi:cy="1105.1703"
       sodipodi:rx="14.142136"
       sodipodi:ry="14.142136"
       d="m 219.20309,1105.1703 a 14.142136,14.142136 0 1 1 -28.28427,0 14.142136,14.142136 0 1 1 28.28427,0 z"
       transform="matrix(0.38063606,0,0,0.38063606,430.99562,-988.42573)" />
    <path
       transform="matrix(0.38063606,0,0,0.38063606,689.65703,-669.52824)"
       d="m 219.20309,1105.1703 a 14.142136,14.142136 0 1 1 -28.28427,0 14.142136,14.142136 0 1 1 28.28427,0 z"
       sodipodi:ry="14.142136"
       sodipodi:rx="14.142136"
       sodipodi:cy="1105.1703"
       sodipodi:cx="205.06096"
       id="path5884"
       style="fill:none;stroke:#ff0000;stroke-width:2.71440148;stroke-miterlimit:4;stroke-opacity:1;stroke-dasharray:none"
       sodipodi:type="arc" />
    <path
       sodipodi:type="arc"
       style="fill:none;stroke:#ff0000;stroke-width:2.71440148;stroke-miterlimit:4;stroke-opacity:1;stroke-dasharray:none"
       id="path5886"
       sodipodi:cx="205.06096"
       sodipodi:cy="1105.1703"
       sodipodi:rx="14.142136"
       sodipodi:ry="14.142136"
       d="m 219.20309,1105.1703 a 14.142136,14.142136 0 1 1 -28.28427,0 14.142136,14.142136 0 1 1 28.28427,0 z"
       transform="matrix(0.40309815,0,0,0.3796237,781.05221,-980.23446)" />
    <path
       sodipodi:type="arc"
       style="fill:none;stroke:#ff0000;stroke-width:2.71440148;stroke-miterlimit:4;stroke-opacity:1;stroke-dasharray:none"
       id="path4207"
       sodipodi:cx="205.06096"
       sodipodi:cy="1105.1703"
       sodipodi:rx="14.142136"
       sodipodi:ry="14.142136"
       d="m 219.20309,1105.1703 a 14.142136,14.142136 0 1 1 -28.28427,0 14.142136,14.142136 0 1 1 28.28427,0 z"
       transform="matrix(0.38063606,0,0,0.38063606,383.17514,-630.55186)" />
    <g
       id="g3180"
       transform="translate(0,-1228)">
      <path
         sodipodi:type="arc"
         style="fill:none;stroke:#ff0000;stroke-width:2.71440148;stroke-miterlimit:4;stroke-opacity:1;stroke-dasharray:none"
         id="path5888"
         sodipodi:cx="205.06096"
         sodipodi:cy="1105.1703"
         sodipodi:rx="14.142136"
         sodipodi:ry="14.142136"
         d="m 219.20309,1105.1703 c 0,7.8105 -6.33165,14.1421 -14.14213,14.1421 -7.81049,0 -14.14214,-6.3316 -14.14214,-14.1421 0,-7.8105 6.33165,-14.1421 14.14214,-14.1421 7.81048,0 14.14213,6.3316 14.14213,14.1421 z"
         transform="matrix(0.38063606,0,0,0.38063606,69.578294,556.70011)" />
      <path
         id="path5836"
         style="fill:none;stroke:#ff0000;stroke-width:1.00000131"
         d="m 411.87869,757.90949 0.60325,-3.42122 m 2.233,3.92133 -2.83625,-0.50011 m 0.68267,12.7137 2.15358,-12.21359 m -4.98984,11.71348 2.83626,0.50011 m -5.91816,16.97826 3.0819,-17.47837 m -0.24565,17.97848 -2.83625,-0.50011 m 0.68267,12.71369 2.15358,-12.21358 m -4.98984,11.71347 2.83626,0.50011 m -3.43951,2.92111 0.60325,-3.42122 m -49.35136,-5.17438 48.74811,8.5956 m -48.14486,-12.01682 -0.60325,3.42122 m -2.23301,-3.92133 2.83626,0.50011 m -0.68267,-12.7137 -2.15359,12.21359 m 4.98984,-11.71348 -2.83625,-0.50011 m 5.91816,-16.97826 -3.08191,17.47837 m 0.24566,-17.97848 2.83625,0.50011 m -0.68267,-12.71369 -2.15358,12.21358 m 4.98984,-11.71347 -2.83626,-0.50011 m 3.43951,-2.92112 -0.60325,3.42123 m 49.35136,5.17438 -48.74811,-8.59561"
         inkscape:connector-curvature="0" />
      <path
         id="path5838"
         style="fill:none;stroke:#ff0000;stroke-width:1.00000131"
         d="m 181.08586,900.64647 0.60325,-3.42122 m 2.23301,3.92133 -2.83626,-0.50011 m 0.68267,12.7137 2.15359,-12.21359 m -4.98985,11.71348 2.83626,0.50011 m -5.91816,16.97826 3.0819,-17.47837 m -0.24565,17.97848 -2.83625,-0.50011 m 0.68267,12.71369 2.15358,-12.21358 m -4.98984,11.71347 2.83626,0.50011 m -3.43951,2.92112 0.60325,-3.42123 m -49.35136,-5.17438 48.74811,8.59561 m -48.14486,-12.01683 -0.60325,3.42122 m -2.23301,-3.92133 2.83626,0.50011 m -0.68267,-12.7137 -2.15359,12.21359 m 4.98985,-11.71348 -2.83626,-0.50011 m 5.91816,-16.97826 -3.0819,17.47837 m 0.24565,-17.97848 2.83625,0.50011 m -0.68267,-12.71369 -2.15358,12.21358 m 4.98984,-11.71347 -2.83626,-0.50011 m 3.43951,-2.92112 -0.60325,3.42123 m 49.35136,5.17438 -48.74811,-8.59561"
         inkscape:connector-curvature="0" />
      <path
         id="path5840"
         style="fill:none;stroke:#ff0000;stroke-width:1.00000131"
         d="m 147.7868,700.77677 0.60326,-3.42122 m 2.233,3.92133 -2.83626,-0.50011 m 0.68267,12.7137 2.15359,-12.21359 m -4.98984,11.71348 2.83625,0.50011 m -5.91816,16.97826 3.08191,-17.47837 m -0.24565,17.97848 -2.83626,-0.50011 m 0.68267,12.71369 2.15359,-12.21358 m -4.98985,11.71347 2.83626,0.50011 m -3.43951,2.92111 0.60325,-3.42122 m -49.351361,-5.17438 48.748111,8.5956 m -48.144857,-12.01682 -0.603254,3.42122 m -2.233,-3.92133 2.836254,0.50011 m -0.682669,-12.7137 -2.153585,12.21359 m 4.989839,-11.71348 -2.836254,-0.50011 m 5.918162,-16.97826 -3.081908,17.47837 m 0.245654,-17.97848 2.836254,0.50011 m -0.68267,-12.71369 -2.153584,12.21358 m 4.989838,-11.71347 -2.836254,-0.50011 m 3.439508,-2.92112 -0.603254,3.42123 m 49.35137,5.17438 -48.748116,-8.59561"
         inkscape:connector-curvature="0" />
      <path
         id="path5842"
         style="fill:none;stroke:#ff0000;stroke-width:1.00000131"
         d="m 285.80077,695.4968 0.60326,-3.42122 m 2.23299,3.92133 -2.83625,-0.50011 m 0.68266,12.7137 2.15359,-12.21359 m -4.98983,11.71348 2.83624,0.50011 m -5.91815,16.97826 3.08191,-17.47837 m -0.24567,17.97847 -2.83624,-0.5001 m 0.68266,12.71369 2.15358,-12.21359 m -4.98983,11.71348 2.83625,0.50011 m -3.4395,2.92112 0.60325,-3.42123 m -49.35137,-5.17438 48.74812,8.59561 m -48.14487,-12.01684 -0.60325,3.42123 m -2.233,-3.92133 2.83625,0.5001 m -0.68267,-12.71369 -2.15358,12.21359 m 4.98984,-11.71348 -2.83626,-0.50011 m 5.91817,-16.97826 -3.08191,17.47837 m 0.24565,-17.97848 2.83626,0.50011 m -0.68268,-12.71369 -2.15358,12.21358 m 4.98984,-11.71348 -2.83626,-0.5001 m 3.43951,-2.92112 -0.60325,3.42122 m 49.35138,5.17439 -48.74813,-8.59561"
         inkscape:connector-curvature="0" />
      <path
         id="path5844"
         style="fill:none;stroke:#ff0000;stroke-width:1.00000131"
         d="m 349.19903,724.66547 0.60325,-3.42122 m 2.233,3.92133 -2.83625,-0.50011 m 0.68267,12.7137 2.15358,-12.21359 m -4.98984,11.71348 2.83626,0.50011 m -5.91817,16.97826 3.08191,-17.47837 m -0.24565,17.97848 -2.83626,-0.50011 m 0.68268,12.71369 2.15358,-12.21358 m -4.98984,11.71347 2.83626,0.50011 m -3.43951,2.92111 0.60325,-3.42122 m -49.35138,-5.17438 48.74813,8.5956 m -48.14487,-12.01683 -0.60326,3.42123 m -2.23299,-3.92133 2.83625,0.5001 m -0.68266,-12.71369 -2.15359,12.21359 m 4.98983,-11.71348 -2.83624,-0.50011 m 5.91815,-16.97826 -3.08191,17.47837 m 0.24566,-17.97848 2.83625,0.50011 m -0.68266,-12.71369 -2.15359,12.21358 m 4.98984,-11.71348 -2.83625,-0.5001 m 3.4395,-2.92112 -0.60325,3.42122 m 49.35137,5.17439 -48.74812,-8.59561"
         inkscape:connector-curvature="0" />
      <path
         id="path5846"
         style="fill:none;stroke:#ff0000;stroke-width:1.00000131"
         d="m 136.06555,767.2513 0.60325,-3.42123 m 2.23301,3.92134 -2.83626,-0.50011 m 0.68267,12.71369 2.15359,-12.21358 m -4.98984,11.71347 2.83625,0.50011 m -5.91816,16.97826 3.08191,-17.47837 m -0.24566,17.97848 -2.83625,-0.50011 m 0.68267,12.71369 2.15358,-12.21358 m -4.98984,11.71348 2.83626,0.5001 m -3.43951,2.92112 0.60325,-3.42122 m -49.351363,-5.17439 48.748113,8.59561 m -48.144859,-12.01683 -0.603254,3.42122 m -2.233,-3.92133 2.836254,0.50011 m -0.68267,-12.7137 -2.153584,12.21359 m 4.989839,-11.71348 -2.836255,-0.50011 m 5.918163,-16.97826 -3.081908,17.47837 m 0.245653,-17.97847 2.836255,0.5001 m -0.68267,-12.71369 -2.153585,12.21359 m 4.989839,-11.71348 -2.836254,-0.50011 m 3.439508,-2.92111 -0.603254,3.42122 m 49.351362,5.17438 -48.748108,-8.5956"
         inkscape:connector-curvature="0" />
      <path
         id="path5848"
         style="fill:none;stroke:#ff0000;stroke-width:1.00000131"
         d="m 204.52836,767.69743 0.60326,-3.42122 m 2.233,3.92133 -2.83626,-0.50011 m 0.68268,12.71369 2.15358,-12.21358 m -4.98984,11.71347 2.83626,0.50011 m -5.91817,16.97826 3.08191,-17.47837 m -0.24565,17.97848 -2.83626,-0.50011 m 0.68267,12.7137 2.15359,-12.21359 m -4.98984,11.71348 2.83625,0.50011 m -3.43951,2.92111 0.60326,-3.42122 m -49.35137,-5.17439 48.74811,8.59561 m -48.14486,-12.01683 -0.60325,3.42122 m -2.233,-3.92133 2.83625,0.50011 m -0.68267,-12.71369 -2.15358,12.21358 m 4.98984,-11.71348 -2.83626,-0.5001 m 5.91817,-16.97826 -3.08191,17.47836 m 0.24565,-17.97847 2.83626,0.50011 m -0.68267,-12.7137 -2.15359,12.21359 m 4.98984,-11.71348 -2.83625,-0.50011 m 3.43951,-2.92111 -0.60326,3.42122 m 49.35137,5.17439 -48.74811,-8.59561"
         inkscape:connector-curvature="0" />
      <path
         id="path5850"
         style="fill:none;stroke:#ff0000;stroke-width:1.00000131"
         d="m 274.07952,761.97133 0.60325,-3.42123 m 2.233,3.92133 -2.83625,-0.5001 m 0.68266,12.71369 2.15359,-12.21359 m -4.98984,11.71348 2.83625,0.50011 m -5.91815,16.97826 3.0819,-17.47837 m -0.24566,17.97848 -2.83624,-0.50011 m 0.68266,12.71369 2.15358,-12.21358 m -4.98983,11.71348 2.83625,0.5001 m -3.4395,2.92112 0.60325,-3.42122 m -49.35137,-5.17439 48.74812,8.59561 m -48.14487,-12.01683 -0.60325,3.42122 m -2.23301,-3.92133 2.83626,0.50011 m -0.68267,-12.7137 -2.15359,12.21359 m 4.98985,-11.71348 -2.83626,-0.50011 m 5.91816,-16.97826 -3.0819,17.47837 m 0.24565,-17.97848 2.83625,0.50011 m -0.68267,-12.71369 -2.15358,12.21358 m 4.98984,-11.71347 -2.83626,-0.50011 m 3.43951,-2.92111 -0.60325,3.42122 m 49.35137,5.17438 -48.74812,-8.5956"
         inkscape:connector-curvature="0" />
      <path
         id="path5852"
         style="fill:none;stroke:#ff0000;stroke-width:1.00000131"
         d="m 337.47777,791.14 0.60326,-3.42123 m 2.233,3.92133 -2.83626,-0.5001 m 0.68268,12.71369 2.15358,-12.21359 m -4.98984,11.71348 2.83626,0.50011 m -5.91817,16.97826 3.08191,-17.47837 m -0.24565,17.97848 -2.83626,-0.50011 m 0.68267,12.71369 2.15359,-12.21358 m -4.98984,11.71348 2.83625,0.5001 m -3.43951,2.92112 0.60326,-3.42122 m -49.35138,-5.17439 48.74812,8.59561 m -48.14486,-12.01683 -0.60326,3.42122 m -2.23299,-3.92133 2.83625,0.50011 m -0.68267,-12.7137 -2.15358,12.21359 m 4.98983,-11.71348 -2.83625,-0.50011 m 5.91816,-16.97826 -3.08191,17.47837 m 0.24566,-17.97847 2.83625,0.5001 m -0.68266,-12.71369 -2.15359,12.21359 m 4.98983,-11.71348 -2.83624,-0.50011 m 3.4395,-2.92112 -0.60326,3.42123 m 49.35138,5.17438 -48.74812,-8.59561"
         inkscape:connector-curvature="0" />
      <path
         id="path5854"
         style="fill:none;stroke:#ff0000;stroke-width:1.00000131"
         d="m 400.15744,824.38402 0.60325,-3.42123 m 2.233,3.92133 -2.83625,-0.5001 m 0.68267,12.71369 2.15358,-12.21359 m -4.98984,11.71348 2.83626,0.50011 m -5.91817,16.97826 3.08191,-17.47837 m -0.24565,17.97848 -2.83626,-0.50011 m 0.68267,12.71369 2.15359,-12.21358 m -4.98984,11.71348 2.83625,0.5001 m -3.43951,2.92112 0.60326,-3.42122 m -49.35137,-5.17439 48.74811,8.59561 m -48.14485,-12.01683 -0.60326,3.42122 m -2.233,-3.92133 2.83626,0.50011 m -0.68267,-12.7137 -2.15359,12.21359 m 4.98984,-11.71348 -2.83625,-0.50011 m 5.91816,-16.97826 -3.08191,17.47837 m 0.24565,-17.97847 2.83626,0.5001 m -0.68267,-12.71369 -2.15359,12.21359 m 4.98984,-11.71348 -2.83625,-0.50011 m 3.43951,-2.92111 -0.60326,3.42122 m 49.35137,5.17438 -48.74811,-8.5956"
         inkscape:connector-curvature="0" />
      <path
         id="path5856"
         style="fill:none;stroke:#ff0000;stroke-width:1.00000131"
         d="m 124.3443,833.72582 0.60325,-3.42122 m 2.233,3.92133 -2.83625,-0.50011 m 0.68267,12.71369 2.15358,-12.21358 m -4.98984,11.71348 2.83626,0.5001 m -5.91816,16.97826 3.0819,-17.47836 m -0.24565,17.97847 -2.83625,-0.50011 m 0.68267,12.7137 2.15358,-12.21359 m -4.98984,11.71348 2.83626,0.50011 m -3.43951,2.92111 0.60325,-3.42122 m -49.351365,-5.17439 48.748115,8.59561 m -48.144861,-12.01683 -0.603254,3.42122 m -2.233,-3.92133 2.836254,0.50011 m -0.68267,-12.71369 -2.153584,12.21358 m 4.989839,-11.71347 -2.836255,-0.50011 m 5.918162,-16.97826 -3.081907,17.47837 m 0.245653,-17.97848 2.836254,0.50011 m -0.682669,-12.7137 -2.153585,12.21359 m 4.989839,-11.71348 -2.836254,-0.50011 m 3.439508,-2.92111 -0.603254,3.42122 m 49.351364,5.17439 -48.74811,-8.59561"
         inkscape:connector-curvature="0" />
      <path
         id="path5858"
         style="fill:none;stroke:#ff0000;stroke-width:1.00000131"
         d="m 192.80711,834.17195 0.60326,-3.42122 m 2.233,3.92133 -2.83626,-0.50011 m 0.68267,12.71369 2.15359,-12.21358 m -4.98984,11.71348 2.83625,0.5001 m -5.91816,16.97826 3.08191,-17.47836 m -0.24565,17.97847 -2.83626,-0.50011 m 0.68267,12.7137 2.15359,-12.21359 m -4.98985,11.71348 2.83626,0.50011 m -3.43951,2.92111 0.60325,-3.42122 m -49.35136,-5.17439 48.74811,8.59561 m -48.14486,-12.01683 -0.60325,3.42122 m -2.233,-3.92133 2.83625,0.50011 m -0.68267,-12.71369 -2.15358,12.21358 m 4.98984,-11.71347 -2.83626,-0.50011 m 5.91817,-16.97826 -3.08191,17.47837 m 0.24565,-17.97848 2.83626,0.50011 m -0.68268,-12.7137 -2.15358,12.21359 m 4.98984,-11.71348 -2.83626,-0.50011 m 3.43951,-2.92111 -0.60325,3.42122 m 49.35137,5.17439 -48.74812,-8.59561"
         inkscape:connector-curvature="0" />
      <path
         id="path5860"
         style="fill:none;stroke:#ff0000;stroke-width:1.00000131"
         d="m 262.35827,828.44585 0.60325,-3.42122 m 2.23299,3.92133 -2.83624,-0.50011 m 0.68266,12.71369 2.15358,-12.21358 m -4.98983,11.71348 2.83625,0.5001 m -5.91816,16.97826 3.08191,-17.47836 m -0.24566,17.97847 -2.83625,-0.50011 m 0.68267,12.7137 2.15358,-12.21359 m -4.98983,11.71348 2.83625,0.50011 m -3.4395,2.92111 0.60325,-3.42122 m -49.35138,-5.17439 48.74813,8.59561 m -48.14487,-12.01683 -0.60326,3.42122 m -2.233,-3.92133 2.83626,0.50011 m -0.68267,-12.71369 -2.15359,12.21358 m 4.98984,-11.71348 -2.83625,-0.5001 m 5.91816,-16.97826 -3.08191,17.47836 m 0.24565,-17.97847 2.83626,0.50011 m -0.68267,-12.7137 -2.15359,12.21359 m 4.98985,-11.71348 -2.83626,-0.50011 m 3.43951,-2.92111 -0.60325,3.42122 m 49.35137,5.17439 -48.74812,-8.59561"
         inkscape:connector-curvature="0" />
      <path
         id="path5862"
         style="fill:none;stroke:#ff0000;stroke-width:1.00000131"
         d="m 325.75652,857.61452 0.60326,-3.42122 m 2.233,3.92133 -2.83626,-0.50011 m 0.68267,12.71369 2.15359,-12.21358 m -4.98984,11.71347 2.83625,0.50011 m -5.91816,16.97826 3.08191,-17.47837 m -0.24565,17.97848 -2.83626,-0.50011 m 0.68267,12.7137 2.15359,-12.21359 m -4.98984,11.71348 2.83625,0.50011 m -3.43951,2.92111 0.60326,-3.42122 m -49.35138,-5.17439 48.74812,8.59561 m -48.14487,-12.01683 -0.60325,3.42122 m -2.23299,-3.92133 2.83624,0.50011 m -0.68266,-12.71369 -2.15358,12.21358 m 4.98983,-11.71348 -2.83625,-0.5001 m 5.91816,-16.97826 -3.08191,17.47836 m 0.24566,-17.97847 2.83625,0.50011 m -0.68267,-12.7137 -2.15358,12.21359 m 4.98983,-11.71348 -2.83625,-0.50011 m 3.4395,-2.92111 -0.60325,3.42122 m 49.35138,5.17439 -48.74813,-8.59561"
         inkscape:connector-curvature="0" />
      <path
         id="path5864"
         style="fill:none;stroke:#ff0000;stroke-width:1.00000131"
         d="m 388.43618,890.85854 0.60326,-3.42122 m 2.233,3.92133 -2.83626,-0.50011 m 0.68267,12.71369 2.15359,-12.21358 m -4.98984,11.71348 2.83625,0.5001 m -5.91816,16.97826 3.08191,-17.47836 m -0.24565,17.97847 -2.83626,-0.50011 m 0.68267,12.7137 2.15359,-12.21359 m -4.98984,11.71348 2.83625,0.50011 m -3.43951,2.92111 0.60326,-3.42122 m -49.35137,-5.17439 48.74811,8.59561 m -48.14486,-12.01683 -0.60325,3.42122 m -2.233,-3.92133 2.83625,0.50011 m -0.68267,-12.71369 -2.15358,12.21358 m 4.98984,-11.71347 -2.83626,-0.50011 m 5.91817,-16.97826 -3.08191,17.47837 m 0.24565,-17.97848 2.83626,0.50011 m -0.68267,-12.7137 -2.15359,12.21359 m 4.98984,-11.71348 -2.83625,-0.50011 m 3.43951,-2.92111 -0.60326,3.42122 m 49.35137,5.17439 -48.74811,-8.59561"
         inkscape:connector-curvature="0" />
      <path
         id="path5866"
         style="fill:none;stroke:#ff0000;stroke-width:1.00000131"
         d="m 112.62305,900.20034 0.60325,-3.42122 m 2.233,3.92133 -2.83625,-0.50011 m 0.68267,12.7137 2.15358,-12.21359 m -4.98984,11.71348 2.83626,0.50011 m -5.91817,16.97826 3.08191,-17.47837 m -0.24565,17.97848 -2.83626,-0.50011 m 0.68267,12.71369 2.15359,-12.21358 m -4.98984,11.71347 2.83625,0.50011 m -3.43951,2.92111 0.60326,-3.42122 m -49.351367,-5.17438 48.748107,8.5956 m -48.144853,-12.01683 -0.603254,3.42123 m -2.233001,-3.92133 2.836255,0.5001 m -0.68267,-12.71369 -2.153585,12.21359 m 4.989839,-11.71348 -2.836254,-0.50011 m 5.918162,-16.97826 -3.081908,17.47837 m 0.245654,-17.97848 2.836254,0.50011 m -0.682669,-12.71369 -2.153585,12.21358 m 4.989839,-11.71347 -2.836254,-0.50011 m 3.439508,-2.92112 -0.603254,3.42123 m 49.351366,5.17438 -48.748112,-8.59561"
         inkscape:connector-curvature="0" />
      <path
         id="path5868"
         style="fill:none;stroke:#ff0000;stroke-width:1.00000131"
         d="m 250.63701,894.92037 0.60326,-3.42122 m 2.23299,3.92133 -2.83625,-0.50011 m 0.68267,12.7137 2.15358,-12.21359 m -4.98983,11.71348 2.83625,0.50011 m -5.91816,16.97826 3.08191,-17.47837 m -0.24566,17.97847 -2.83625,-0.5001 m 0.68266,12.71369 2.15359,-12.21359 m -4.98983,11.71348 2.83624,0.50011 m -3.4395,2.92111 0.60326,-3.42122 m -49.35138,-5.17438 48.74812,8.5956 m -48.14486,-12.01683 -0.60326,3.42123 m -2.233,-3.92134 2.83626,0.50011 m -0.68268,-12.71369 -2.15358,12.21358 m 4.98984,-11.71347 -2.83626,-0.50011 m 5.91817,-16.97826 -3.08191,17.47837 m 0.24565,-17.97848 2.83626,0.50011 m -0.68267,-12.71369 -2.15359,12.21358 m 4.98984,-11.71348 -2.83625,-0.5001 m 3.43951,-2.92112 -0.60326,3.42122 m 49.35138,5.17439 -48.74812,-8.59561"
         inkscape:connector-curvature="0" />
      <path
         id="path5870"
         style="fill:none;stroke:#ff0000;stroke-width:1.00000131"
         d="m 314.03527,924.08904 0.60325,-3.42122 m 2.23301,3.92133 -2.83626,-0.50011 m 0.68267,12.7137 2.15359,-12.21359 m -4.98984,11.71348 2.83625,0.50011 m -5.91816,16.97826 3.08191,-17.47837 m -0.24566,17.97847 -2.83625,-0.5001 m 0.68267,12.71369 2.15358,-12.21359 m -4.98984,11.71348 2.83626,0.50011 m -3.43951,2.92111 0.60325,-3.42122 m -49.35137,-5.17439 48.74812,8.59561 m -48.14487,-12.01683 -0.60325,3.42122 m -2.23299,-3.92132 2.83624,0.5001 m -0.68266,-12.71369 -2.15358,12.21359 m 4.98983,-11.71348 -2.83625,-0.50011 m 5.91815,-16.97826 -3.0819,17.47837 m 0.24566,-17.97848 2.83624,0.50011 m -0.68266,-12.71369 -2.15358,12.21358 m 4.98983,-11.71348 -2.83625,-0.5001 m 3.4395,-2.92112 -0.60325,3.42122 m 49.35137,5.17439 -48.74812,-8.59561"
         inkscape:connector-curvature="0" />
      <path
         id="path5872"
         style="fill:none;stroke:#ff0000;stroke-width:1.00000131"
         d="m 216.24962,701.2229 0.60325,-3.42122 m 2.233,3.92133 -2.83625,-0.50011 m 0.68267,12.7137 2.15358,-12.21359 m -4.98984,11.71348 2.83626,0.50011 m -5.91817,16.97826 3.08191,-17.47837 m -0.24565,17.97848 -2.83626,-0.50011 m 0.68267,12.71369 2.15359,-12.21358 m -4.98984,11.71347 2.83625,0.50011 m -3.4395,2.92112 0.60325,-3.42123 m -49.35137,-5.17438 48.74812,8.59561 m -48.14486,-12.01683 -0.60326,3.42122 m -2.233,-3.92133 2.83626,0.50011 m -0.68267,-12.7137 -2.15359,12.21359 m 4.98984,-11.71348 -2.83625,-0.50011 m 5.91816,-16.97826 -3.08191,17.47837 m 0.24565,-17.97848 2.83626,0.50011 m -0.68267,-12.71369 -2.15359,12.21358 m 4.98984,-11.71347 -2.83625,-0.50011 m 3.43951,-2.92112 -0.60326,3.42123 m 49.35137,5.17438 -48.74811,-8.59561"
         inkscape:connector-curvature="0" />
      <path
         d="m 376.74116,956.92884 0.60326,-3.42122 m 2.233,3.92133 -2.83626,-0.50011 m 0.68268,12.71369 2.15358,-12.21358 m -4.98984,11.71348 2.83626,0.5001 m -5.91817,16.97826 3.08191,-17.47836 m -0.24565,17.97847 -2.83626,-0.50011 m 0.68267,12.7137 2.15359,-12.21359 m -4.98984,11.71348 2.83625,0.50011 m -3.43951,2.92111 0.60326,-3.42122 m -49.35137,-5.17439 48.74811,8.59561 m -48.14485,-12.01683 -0.60326,3.42122 m -2.233,-3.92133 2.83626,0.50011 m -0.68268,-12.71369 -2.15358,12.21358 m 4.98984,-11.71347 -2.83626,-0.50011 m 5.91817,-16.97826 -3.08191,17.47837 m 0.24565,-17.97848 2.83626,0.50011 m -0.68267,-12.7137 -2.15359,12.21359 m 4.98984,-11.71348 -2.83625,-0.50011 m 3.43951,-2.92111 -0.60326,3.42122 m 49.35137,5.17439 -48.74811,-8.59561"
         style="fill:none;stroke:#ff0000;stroke-width:1.00000131"
         id="path5874"
         inkscape:connector-curvature="0" />
      <path
         inkscape:connector-curvature="0"
         id="path4237"
         style="fill:none;stroke:#ff0000;stroke-width:1.00000131"
         d="m 451.40357,934.38564 0.60326,-3.42122 m 2.233,3.92133 -2.83626,-0.50011 m 0.68268,12.71369 2.15358,-12.21358 m -4.98984,11.71348 2.83626,0.5001 m -5.91817,16.97826 3.08191,-17.47836 m -0.24565,17.97847 -2.83626,-0.50011 m 0.68267,12.7137 2.15359,-12.21359 m -4.98984,11.71348 2.83625,0.50011 m -3.43951,2.92111 0.60326,-3.42122 m -49.35137,-5.17439 48.74811,8.59561 m -48.14485,-12.01683 -0.60326,3.42122 m -2.233,-3.92133 2.83626,0.50011 m -0.68268,-12.71369 -2.15358,12.21358 m 4.98984,-11.71347 -2.83626,-0.50011 m 5.91817,-16.97826 -3.08191,17.47837 m 0.24565,-17.97848 2.83626,0.50011 m -0.68267,-12.7137 -2.15359,12.21359 m 4.98984,-11.71348 -2.83625,-0.50011 m 3.43951,-2.92111 -0.60326,3.42122 m 49.35137,5.17439 -48.74811,-8.59561" />
    </g>
    <g
       id="g3204"
       transform="translate(0,-1228)">
      <path
         inkscape:connector-curvature="0"
         d="m 512.01696,757.16185 -0.60325,-3.42122 m -2.233,3.92133 2.83625,-0.50011 m -0.68267,12.71369 -2.15358,-12.21358 m 4.98984,11.71347 -2.83626,0.50011 m 5.91816,16.97826 -3.0819,-17.47837 m 0.24565,17.97848 2.83625,-0.50011 m -0.68267,12.7137 -2.15358,-12.21359 m 4.98984,11.71348 -2.83626,0.50011 m 3.43951,2.92111 -0.60325,-3.42122 m 49.35136,-5.17439 -48.74811,8.59561 m 48.14486,-12.01683 0.60325,3.42122 m 2.23301,-3.92133 -2.83626,0.50011 m 0.68267,-12.71369 2.15359,12.21358 m -4.98984,-11.71348 2.83625,-0.5001 m -5.91816,-16.97826 3.08191,17.47836 m -0.24566,-17.97847 -2.83625,0.50011 m 0.68267,-12.7137 2.15358,12.21359 m -4.98984,-11.71348 2.83626,-0.50011 m -3.43951,-2.92111 0.60325,3.42122 m -49.35136,5.17439 48.74811,-8.59561"
         style="fill:none;stroke:#ff0000;stroke-width:1.00000131"
         id="path5892" />
      <path
         inkscape:connector-curvature="0"
         d="m 742.80979,899.89883 -0.60325,-3.42122 m -2.23301,3.92133 2.83626,-0.50011 m -0.68267,12.71369 -2.15359,-12.21358 m 4.98985,11.71347 -2.83626,0.50011 m 5.91816,16.97826 -3.0819,-17.47837 m 0.24565,17.97848 2.83625,-0.50011 m -0.68267,12.7137 -2.15358,-12.21359 m 4.98984,11.71348 -2.83626,0.50011 m 3.43951,2.92111 -0.60325,-3.42122 m 49.35136,-5.17439 -48.74811,8.59561 m 48.14486,-12.01683 0.60325,3.42122 m 2.23301,-3.92133 -2.83626,0.50011 m 0.68267,-12.71369 2.15359,12.21358 m -4.98985,-11.71348 2.83626,-0.5001 m -5.91816,-16.97826 3.0819,17.47836 m -0.24565,-17.97847 -2.83625,0.50011 m 0.68267,-12.7137 2.15358,12.21359 m -4.98984,-11.71348 2.83626,-0.50011 m -3.43951,-2.92111 0.60325,3.42122 m -49.35136,5.17439 48.74811,-8.59561"
         style="fill:none;stroke:#ff0000;stroke-width:1.00000131"
         id="path5894" />
      <path
         inkscape:connector-curvature="0"
         d="m 776.10885,700.02913 -0.60326,-3.42122 m -2.233,3.92133 2.83626,-0.50011 m -0.68267,12.71369 -2.15359,-12.21358 m 4.98984,11.71347 -2.83625,0.50011 m 5.91816,16.97826 -3.08191,-17.47837 m 0.24565,17.97848 2.83626,-0.50011 m -0.68267,12.7137 -2.15359,-12.21359 m 4.98985,11.71348 -2.83626,0.50011 m 3.43951,2.92111 -0.60325,-3.42122 m 49.35136,-5.17439 -48.74811,8.59561 m 48.14486,-12.01683 0.60325,3.42122 m 2.233,-3.92133 -2.83625,0.50011 m 0.68267,-12.71369 2.15358,12.21358 m -4.98984,-11.71348 2.83626,-0.5001 m -5.91817,-16.97826 3.08191,17.47836 m -0.24565,-17.97847 -2.83626,0.50011 m 0.68267,-12.7137 2.15359,12.21359 m -4.98984,-11.71348 2.83625,-0.50011 m -3.4395,-2.92111 0.60325,3.42122 m -49.35137,5.17439 48.74812,-8.59561"
         style="fill:none;stroke:#ff0000;stroke-width:1.00000131"
         id="path5896" />
      <path
         inkscape:connector-curvature="0"
         d="m 638.09488,694.74916 -0.60326,-3.42122 m -2.23299,3.92133 2.83625,-0.50011 m -0.68266,12.71369 -2.15359,-12.21358 m 4.98983,11.71347 -2.83624,0.50011 m 5.91815,16.97826 -3.08191,-17.47837 m 0.24567,17.97848 2.83624,-0.50011 m -0.68266,12.71369 -2.15358,-12.21358 m 4.98983,11.71348 -2.83625,0.5001 m 3.4395,2.92112 -0.60325,-3.42122 m 49.35137,-5.17439 -48.74812,8.59561 m 48.14487,-12.01683 0.60325,3.42122 m 2.233,-3.92133 -2.83625,0.50011 m 0.68267,-12.7137 2.15358,12.21359 m -4.98984,-11.71348 2.83626,-0.50011 m -5.91817,-16.97825 3.08191,17.47836 m -0.24565,-17.97847 -2.83626,0.50011 m 0.68268,-12.7137 2.15358,12.21359 m -4.98984,-11.71348 2.83626,-0.50011 m -3.43951,-2.92111 0.60325,3.42122 m -49.35138,5.17439 48.74813,-8.59561"
         style="fill:none;stroke:#ff0000;stroke-width:1.00000131"
         id="path5898" />
      <path
         inkscape:connector-curvature="0"
         d="m 574.69662,723.91783 -0.60325,-3.42122 m -2.233,3.92133 2.83625,-0.50011 m -0.68267,12.71369 -2.15358,-12.21358 m 4.98984,11.71347 -2.83626,0.50011 m 5.91817,16.97826 -3.08191,-17.47837 m 0.24565,17.97848 2.83626,-0.50011 m -0.68268,12.7137 -2.15358,-12.21359 m 4.98984,11.71348 -2.83626,0.50011 m 3.43951,2.92111 -0.60325,-3.42122 m 49.35138,-5.17439 -48.74813,8.59561 m 48.14487,-12.01683 0.60326,3.42122 m 2.23299,-3.92133 -2.83625,0.50011 m 0.68266,-12.71369 2.15359,12.21358 m -4.98983,-11.71348 2.83624,-0.5001 m -5.91815,-16.97827 3.08191,17.47837 m -0.24566,-17.97847 -2.83625,0.5001 m 0.68266,-12.71369 2.15359,12.21359 m -4.98984,-11.71348 2.83625,-0.50011 m -3.4395,-2.92111 0.60325,3.42122 m -49.35137,5.17439 48.74812,-8.59561"
         style="fill:none;stroke:#ff0000;stroke-width:1.00000131"
         id="path5900" />
      <path
         inkscape:connector-curvature="0"
         d="m 787.8301,766.50365 -0.60325,-3.42122 m -2.23301,3.92133 2.83626,-0.50011 m -0.68267,12.7137 -2.15359,-12.21359 m 4.98984,11.71348 -2.83625,0.50011 m 5.91816,16.97826 -3.08191,-17.47837 m 0.24566,17.97847 2.83625,-0.5001 m -0.68267,12.71369 -2.15358,-12.21359 m 4.98984,11.71348 -2.83626,0.50011 m 3.43951,2.92111 -0.60325,-3.42122 m 49.35136,-5.17438 -48.74811,8.5956 m 48.14486,-12.01683 0.60325,3.42123 m 2.233,-3.92133 -2.83625,0.5001 m 0.68267,-12.71369 2.15358,12.21359 M 841.8137,787.6 l 2.83626,-0.50011 M 838.7318,770.12163 841.8137,787.6 m -0.24565,-17.97848 -2.83625,0.50011 m 0.68267,-12.71369 2.15358,12.21358 m -4.98984,-11.71348 2.83626,-0.5001 m -3.43951,-2.92112 0.60325,3.42122 m -49.35136,5.17439 48.74811,-8.59561"
         style="fill:none;stroke:#ff0000;stroke-width:1.00000131"
         id="path5902" />
      <path
         inkscape:connector-curvature="0"
         d="m 719.36729,766.94978 -0.60326,-3.42122 m -2.233,3.92133 2.83626,-0.50011 m -0.68268,12.7137 -2.15358,-12.21359 m 4.98984,11.71348 -2.83626,0.50011 m 5.91817,16.97826 -3.08191,-17.47837 m 0.24565,17.97847 2.83626,-0.5001 m -0.68267,12.71369 -2.15359,-12.21359 m 4.98984,11.71348 -2.83625,0.50011 m 3.43951,2.92111 -0.60326,-3.42122 m 49.35137,-5.17438 -48.74811,8.5956 m 48.14486,-12.01683 0.60325,3.42123 m 2.233,-3.92133 -2.83625,0.5001 m 0.68267,-12.71369 2.15358,12.21359 m -4.98984,-11.71348 2.83626,-0.50011 m -5.91817,-16.97826 3.08191,17.47837 m -0.24565,-17.97848 -2.83626,0.50011 m 0.68267,-12.71369 2.15359,12.21358 m -4.98984,-11.71348 2.83625,-0.5001 m -3.43951,-2.92112 0.60326,3.42122 m -49.35137,5.17439 48.74811,-8.59561"
         style="fill:none;stroke:#ff0000;stroke-width:1.00000131"
         id="path5904" />
      <path
         inkscape:connector-curvature="0"
         d="m 649.81613,761.22368 -0.60325,-3.42122 m -2.233,3.92133 2.83625,-0.50011 m -0.68266,12.71369 -2.15359,-12.21358 m 4.98984,11.71348 -2.83625,0.5001 m 5.91815,16.97827 -3.0819,-17.47837 m 0.24566,17.97847 2.83624,-0.5001 m -0.68266,12.71369 -2.15358,-12.21359 m 4.98983,11.71348 -2.83625,0.50011 m 3.4395,2.92111 -0.60325,-3.42122 m 49.35137,-5.17439 -48.74812,8.59561 m 48.14487,-12.01683 0.60325,3.42122 m 2.23301,-3.92133 -2.83626,0.50011 m 0.68267,-12.71369 2.15359,12.21358 m -4.98985,-11.71347 2.83626,-0.50011 m -5.91816,-16.97826 3.0819,17.47837 m -0.24565,-17.97848 -2.83625,0.50011 m 0.68267,-12.7137 2.15358,12.21359 m -4.98984,-11.71348 2.83626,-0.50011 m -3.43951,-2.92111 0.60325,3.42122 m -49.35137,5.17439 48.74812,-8.59561"
         style="fill:none;stroke:#ff0000;stroke-width:1.00000131"
         id="path5906" />
      <path
         inkscape:connector-curvature="0"
         d="m 586.41788,790.39235 -0.60326,-3.42122 m -2.233,3.92133 2.83626,-0.50011 m -0.68268,12.7137 -2.15358,-12.21359 m 4.98984,11.71348 -2.83626,0.50011 m 5.91817,16.97825 -3.08191,-17.47836 m 0.24565,17.97847 2.83626,-0.50011 m -0.68267,12.7137 -2.15359,-12.21359 m 4.98984,11.71348 -2.83625,0.50011 m 3.43951,2.92111 -0.60326,-3.42122 m 49.35138,-5.17439 -48.74812,8.59561 m 48.14486,-12.01683 0.60326,3.42122 m 2.23299,-3.92133 -2.83625,0.50011 m 0.68267,-12.71369 2.15358,12.21358 m -4.98983,-11.71347 2.83625,-0.50011 m -5.91816,-16.97826 3.08191,17.47837 m -0.24566,-17.97848 -2.83625,0.50011 m 0.68266,-12.71369 2.15359,12.21358 m -4.98983,-11.71348 2.83624,-0.5001 m -3.4395,-2.92112 0.60326,3.42122 m -49.35138,5.17439 48.74812,-8.59561"
         style="fill:none;stroke:#ff0000;stroke-width:1.00000131"
         id="path5908" />
      <path
         inkscape:connector-curvature="0"
         d="m 523.73821,823.63637 -0.60325,-3.42122 m -2.233,3.92133 2.83625,-0.50011 m -0.68267,12.7137 -2.15358,-12.21359 m 4.98984,11.71348 -2.83626,0.50011 m 5.91817,16.97826 -3.08191,-17.47837 m 0.24565,17.97847 2.83626,-0.5001 m -0.68267,12.71369 -2.15359,-12.21359 m 4.98984,11.71348 -2.83625,0.50011 m 3.43951,2.92111 -0.60326,-3.42122 m 49.35137,-5.17438 -48.74811,8.5956 m 48.14485,-12.01683 0.60326,3.42123 m 2.233,-3.92134 -2.83626,0.50011 m 0.68267,-12.71369 2.15359,12.21358 m -4.98984,-11.71347 2.83625,-0.50011 m -5.91816,-16.97826 3.08191,17.47837 m -0.24565,-17.97848 -2.83626,0.50011 m 0.68267,-12.71369 2.15359,12.21358 m -4.98984,-11.71348 2.83625,-0.5001 m -3.43951,-2.92112 0.60326,3.42122 m -49.35137,5.17439 48.74811,-8.59561"
         style="fill:none;stroke:#ff0000;stroke-width:1.00000131"
         id="path5910" />
      <path
         inkscape:connector-curvature="0"
         d="m 799.55135,832.97817 -0.60325,-3.42122 m -2.233,3.92133 2.83625,-0.50011 m -0.68267,12.7137 -2.15358,-12.21359 m 4.98984,11.71348 -2.83626,0.50011 m 5.91816,16.97826 -3.0819,-17.47837 m 0.24565,17.97848 2.83625,-0.50011 m -0.68267,12.71369 -2.15358,-12.21358 m 4.98984,11.71347 -2.83626,0.50011 m 3.43951,2.92112 -0.60325,-3.42123 m 49.35136,-5.17438 -48.74811,8.59561 m 48.14486,-12.01683 0.60325,3.42122 m 2.23301,-3.92133 -2.83626,0.50011 m 0.68267,-12.7137 2.15359,12.21359 m -4.98984,-11.71348 2.83625,-0.50011 m -5.91816,-16.97826 3.08191,17.47837 m -0.24566,-17.97848 -2.83625,0.50011 m 0.68267,-12.71369 2.15358,12.21358 m -4.98984,-11.71347 2.83626,-0.50011 m -3.43951,-2.92111 0.60325,3.42122 m -49.35136,5.17438 48.74811,-8.5956"
         style="fill:none;stroke:#ff0000;stroke-width:1.00000131"
         id="path5912" />
      <path
         inkscape:connector-curvature="0"
         d="m 731.08854,833.42431 -0.60326,-3.42123 m -2.233,3.92133 2.83626,-0.5001 m -0.68267,12.71369 -2.15359,-12.21359 m 4.98984,11.71348 -2.83625,0.50011 m 5.91816,16.97826 -3.08191,-17.47837 m 0.24565,17.97848 2.83626,-0.50011 m -0.68267,12.71369 -2.15359,-12.21358 m 4.98985,11.71347 -2.83626,0.50011 m 3.43951,2.92112 -0.60325,-3.42123 m 49.35136,-5.17438 -48.74811,8.59561 m 48.14486,-12.01683 0.60325,3.42122 m 2.233,-3.92133 -2.83625,0.50011 m 0.68267,-12.7137 2.15358,12.21359 m -4.98984,-11.71348 2.83626,-0.50011 m -5.91817,-16.97826 3.08191,17.47837 m -0.24565,-17.97847 -2.83626,0.5001 m 0.68268,-12.71369 2.15358,12.21359 m -4.98984,-11.71348 2.83626,-0.50011 m -3.43951,-2.92111 0.60325,3.42122 m -49.35137,5.17438 48.74812,-8.5956"
         style="fill:none;stroke:#ff0000;stroke-width:1.00000131"
         id="path5914" />
      <path
         inkscape:connector-curvature="0"
         d="m 661.53738,827.6982 -0.60325,-3.42122 m -2.23299,3.92133 2.83624,-0.50011 m -0.68266,12.7137 -2.15358,-12.21359 m 4.98983,11.71348 -2.83625,0.50011 m 5.91816,16.97826 -3.08191,-17.47837 m 0.24566,17.97848 2.83625,-0.50011 m -0.68267,12.71369 -2.15358,-12.21358 m 4.98983,11.71347 -2.83625,0.50011 m 3.4395,2.92112 -0.60325,-3.42123 m 49.35138,-5.17438 -48.74813,8.59561 m 48.14487,-12.01684 0.60326,3.42123 m 2.233,-3.92133 -2.83626,0.5001 m 0.68267,-12.71369 2.15359,12.21359 m -4.98984,-11.71348 2.83625,-0.50011 m -5.91816,-16.97826 3.08191,17.47837 m -0.24565,-17.97848 -2.83626,0.50011 m 0.68267,-12.71369 2.15359,12.21358 m -4.98985,-11.71347 2.83626,-0.50011 m -3.43951,-2.92112 0.60325,3.42123 m -49.35137,5.17438 48.74812,-8.59561"
         style="fill:none;stroke:#ff0000;stroke-width:1.00000131"
         id="path5916" />
      <path
         inkscape:connector-curvature="0"
         d="m 598.13913,856.86687 -0.60326,-3.42122 m -2.233,3.92133 2.83626,-0.50011 m -0.68267,12.7137 -2.15359,-12.21359 m 4.98984,11.71348 -2.83625,0.50011 m 5.91816,16.97826 -3.08191,-17.47837 m 0.24565,17.97848 2.83626,-0.50011 m -0.68267,12.71369 -2.15359,-12.21358 m 4.98984,11.71347 -2.83625,0.50011 m 3.43951,2.92112 -0.60326,-3.42123 m 49.35138,-5.17438 -48.74812,8.59561 m 48.14487,-12.01684 0.60325,3.42123 m 2.23299,-3.92133 -2.83624,0.5001 m 0.68266,-12.71369 2.15358,12.21359 m -4.98983,-11.71348 2.83625,-0.50011 m -5.91816,-16.97826 3.08191,17.47837 m -0.24566,-17.97848 -2.83625,0.50011 m 0.68267,-12.71369 2.15358,12.21358 m -4.98983,-11.71348 2.83625,-0.5001 m -3.4395,-2.92112 0.60325,3.42122 m -49.35138,5.17439 48.74813,-8.59561"
         style="fill:none;stroke:#ff0000;stroke-width:1.00000131"
         id="path5918" />
      <path
         inkscape:connector-curvature="0"
         d="m 535.45947,890.11089 -0.60326,-3.42122 m -2.233,3.92133 2.83626,-0.50011 m -0.68267,12.7137 -2.15359,-12.21359 m 4.98984,11.71348 -2.83625,0.50011 m 5.91816,16.97826 -3.08191,-17.47837 m 0.24565,17.97848 2.83626,-0.50011 m -0.68267,12.71369 -2.15359,-12.21358 m 4.98984,11.71347 -2.83625,0.50011 m 3.43951,2.92112 -0.60326,-3.42123 m 49.35137,-5.17438 -48.74811,8.59561 m 48.14486,-12.01683 0.60325,3.42122 m 2.233,-3.92133 -2.83625,0.50011 m 0.68267,-12.7137 2.15358,12.21359 m -4.98984,-11.71348 2.83626,-0.50011 m -5.91817,-16.97826 3.08191,17.47837 m -0.24565,-17.97848 -2.83626,0.50011 m 0.68267,-12.71369 2.15359,12.21358 m -4.98984,-11.71347 2.83625,-0.50011 m -3.43951,-2.92112 0.60326,3.42123 m -49.35137,5.17438 48.74811,-8.59561"
         style="fill:none;stroke:#ff0000;stroke-width:1.00000131"
         id="path5920" />
      <path
         inkscape:connector-curvature="0"
         d="m 811.2726,899.4527 -0.60325,-3.42122 m -2.233,3.92133 2.83625,-0.50011 m -0.68267,12.71369 -2.15358,-12.21358 m 4.98984,11.71347 -2.83626,0.50011 m 5.91817,16.97826 -3.08191,-17.47837 m 0.24565,17.97848 2.83626,-0.50011 m -0.68267,12.7137 -2.15359,-12.21359 m 4.98984,11.71348 -2.83625,0.50011 m 3.43951,2.92111 -0.60326,-3.42122 m 49.35137,-5.17439 -48.74811,8.59561 m 48.14485,-12.01683 0.60326,3.42122 m 2.233,-3.92133 -2.83626,0.50011 m 0.68267,-12.71369 2.15359,12.21358 m -4.98984,-11.71348 2.83625,-0.5001 m -5.91816,-16.97826 3.08191,17.47836 m -0.24566,-17.97847 -2.83625,0.50011 m 0.68267,-12.7137 2.15358,12.21359 m -4.98983,-11.71348 2.83625,-0.50011 m -3.43951,-2.92111 0.60326,3.42122 m -49.35137,5.17439 48.74811,-8.59561"
         style="fill:none;stroke:#ff0000;stroke-width:1.00000131"
         id="path5922" />
      <path
         inkscape:connector-curvature="0"
         d="m 673.25864,894.17273 -0.60326,-3.42122 m -2.23299,3.92132 2.83625,-0.5001 m -0.68267,12.71369 -2.15358,-12.21359 m 4.98983,11.71348 -2.83625,0.50011 m 5.91816,16.97826 -3.08191,-17.47837 m 0.24566,17.97848 2.83625,-0.50011 m -0.68266,12.71369 -2.15359,-12.21358 m 4.98983,11.71348 -2.83624,0.5001 m 3.4395,2.92112 -0.60326,-3.42122 m 49.35138,-5.17439 -48.74812,8.59561 m 48.14486,-12.01683 0.60326,3.42122 m 2.233,-3.92133 -2.83626,0.50011 m 0.68268,-12.7137 2.15358,12.21359 m -4.98984,-11.71348 2.83626,-0.50011 m -5.91817,-16.97826 3.08191,17.47837 m -0.24565,-17.97847 -2.83626,0.5001 m 0.68267,-12.71369 2.15359,12.21359 m -4.98984,-11.71348 2.83625,-0.50011 m -3.43951,-2.92111 0.60326,3.42122 m -49.35138,5.17439 48.74812,-8.59561"
         style="fill:none;stroke:#ff0000;stroke-width:1.00000131"
         id="path5924" />
      <path
         inkscape:connector-curvature="0"
         d="m 609.86038,923.3414 -0.60325,-3.42122 m -2.23301,3.92133 2.83626,-0.50011 m -0.68267,12.71369 -2.15359,-12.21358 m 4.98984,11.71347 -2.83625,0.50011 m 5.91816,16.97826 -3.08191,-17.47837 m 0.24566,17.97848 2.83625,-0.50011 m -0.68267,12.7137 -2.15358,-12.21359 m 4.98984,11.71348 -2.83626,0.50011 m 3.43951,2.92111 -0.60325,-3.42122 m 49.35137,-5.17439 -48.74812,8.59561 m 48.14487,-12.01683 0.60325,3.42122 m 2.23299,-3.92133 -2.83624,0.50011 m 0.68266,-12.7137 2.15358,12.21359 m -4.98983,-11.71348 2.83625,-0.50011 m -5.91815,-16.97826 3.0819,17.47837 m -0.24566,-17.97847 -2.83624,0.5001 m 0.68266,-12.71369 2.15358,12.21359 m -4.98983,-11.71348 2.83625,-0.50011 m -3.4395,-2.92111 0.60325,3.42122 m -49.35137,5.17439 48.74812,-8.59561"
         style="fill:none;stroke:#ff0000;stroke-width:1.00000131"
         id="path5926" />
      <path
         inkscape:connector-curvature="0"
         d="m 707.64603,700.47526 -0.60325,-3.42122 m -2.233,3.92133 2.83625,-0.50011 m -0.68267,12.71369 -2.15358,-12.21358 m 4.98984,11.71348 -2.83626,0.5001 m 5.91817,16.97826 -3.08191,-17.47836 m 0.24565,17.97847 2.83626,-0.50011 m -0.68267,12.7137 -2.15359,-12.21359 m 4.98984,11.71348 -2.83625,0.50011 m 3.4395,2.92111 -0.60325,-3.42122 m 49.35137,-5.17439 -48.74812,8.59561 m 48.14486,-12.01683 0.60326,3.42122 m 2.233,-3.92133 -2.83626,0.50011 m 0.68267,-12.71369 2.15359,12.21358 m -4.98984,-11.71347 2.83625,-0.50011 m -5.91816,-16.97826 3.08191,17.47837 m -0.24565,-17.97848 -2.83626,0.50011 m 0.68267,-12.7137 2.15359,12.21359 m -4.98984,-11.71348 2.83625,-0.50011 m -3.43951,-2.92111 0.60326,3.42122 m -49.35137,5.17439 48.74811,-8.59561"
         style="fill:none;stroke:#ff0000;stroke-width:1.00000131"
         id="path5928" />
      <path
         inkscape:connector-curvature="0"
         id="path5930"
         style="fill:none;stroke:#ff0000;stroke-width:1.00000131"
         d="m 547.50673,956.92881 -0.60326,-3.42123 m -2.233,3.92133 2.83626,-0.5001 m -0.68268,12.71369 -2.15358,-12.21359 m 4.98984,11.71348 -2.83626,0.50011 m 5.91817,16.97826 -3.08191,-17.47837 m 0.24565,17.97848 2.83626,-0.50011 m -0.68267,12.71369 -2.15359,-12.21358 m 4.98984,11.71347 -2.83625,0.50011 m 3.43951,2.92115 -0.60326,-3.42126 m 49.35137,-5.17438 -48.74811,8.59564 m 48.14485,-12.01686 0.60326,3.42122 m 2.233,-3.92133 -2.83626,0.50011 m 0.68268,-12.7137 2.15358,12.21359 m -4.98984,-11.71348 2.83626,-0.50011 m -5.91817,-16.97826 3.08191,17.47837 m -0.24565,-17.97847 -2.83626,0.5001 m 0.68267,-12.71369 2.15359,12.21359 m -4.98984,-11.71348 2.83625,-0.50011 m -3.43951,-2.92111 0.60326,3.42122 m -49.35137,5.17438 48.74811,-8.5956" />
      <path
         d="m 521.24641,925.4625 -0.60324,-3.42122 m 3.4395,2.92112 -2.83626,0.5001 m 4.98985,11.71347 -2.15359,-12.21357 m -0.68267,12.71369 2.83626,-0.50012 m 0.24565,17.97848 L 523.4,937.67609 m 5.91817,16.97826 -2.83626,0.5001 m 4.98984,11.71349 -2.15358,-12.21359 m -0.68267,12.71369 2.83625,-0.5001 m -2.23301,3.92132 -0.60324,-3.42122 m -48.14487,12.01683 48.74811,-8.59561 m -49.35135,5.17439 0.60324,3.42122 m -3.4395,-2.92112 2.83626,-0.5001 m -4.98985,-11.71347 2.15359,12.21357 m 0.68267,-12.71368 -2.83626,0.50011 m -0.24565,-17.97848 3.08191,17.47837 m -5.91817,-16.97827 2.83626,-0.5001 m -4.98984,-11.71349 2.15358,12.21359 m 0.68267,-12.71369 -2.83625,0.5001 m 2.23301,-3.92132 0.60324,3.42122 m 48.14487,-12.01683 -48.74811,8.59561"
         style="fill:none;stroke:#ff0000;stroke-width:1.00000131"
         id="path4239"
         inkscape:connector-curvature="0" />
    </g>
  </g>
  <g
     style="display:inline"
     transform="translate(0,595.27583)"
     id="g5730"
     inkscape:groupmode="layer"
     inkscape:label="Spacer" />
  <g
     style="display:inline"
     transform="translate(0,595.27583)"
     id="g5628"
     inkscape:groupmode="layer"
     inkscape:label="Bottom" />
  <g
     style="display:inline"
     transform="translate(0,595.27583)"
     id="g3114"
     inkscape:groupmode="layer"
     inkscape:label="Top">
    <g
       style="font-size:32px;font-style:normal;font-variant:normal;font-weight:normal;font-stretch:normal;line-height:125%;letter-spacing:0px;word-spacing:0px;fill:none;stroke:#ff0000;stroke-width:0.99921262;stroke-miterlimit:4;stroke-opacity:1;font-family:Anonymous Pro for Powerline;-inkscape-font-specification:Anonymous Pro for Powerline"
       id="text3996"
       transform="translate(0,-1222.441)">
      <path
         d="m 426.28766,709.04321 -2.29688,0 c -2.27946,-9.45081 -8.92476,-9.09451 -11.875,0 l -2.29687,0 6.78125,-20.39062 2.90625,0 6.78125,20.39062"
         id="path4005"
         inkscape:connector-curvature="0"
         sodipodi:nodetypes="ccccccc" />
      <path
         d="m 442.80328,695.54321 -1.82812,0 c -1.21473,-2.21672 -0.0919,-4.99553 -4.375,-5.0625 l 0,16.73438 3.28125,0 0,1.82812 -8.73438,0 0,-1.82812 3.29688,0 0,-16.73438 c -4.47233,0.0627 -2.26301,2.19585 -4.375,5.0625 l -1.82813,0 0,-6.89062 14.5625,0 0,6.89062"
         id="path4007"
         inkscape:connector-curvature="0"
         sodipodi:nodetypes="ccccccccccccccc" />
      <path
         d="m 460.49078,709.04321 -2.71875,0 -5.95312,-8.73437 -3.17188,0 0,8.73437 -2.14062,0 c 0,-3.39844 0,-7.16351 0,-10.56195 l 2.14062,-5.5e-4 4.57813,0 c 1.49999,10e-6 2.67707,-0.31249 3.53125,-0.9375 0.86457,-0.6354 1.29686,-1.65623 1.29687,-3.0625 m 0,0 c -10e-6,-1.3854 -0.4323,-2.39581 -1.29687,-3.03125 -0.85418,-0.64581 -2.03126,-0.96873 -3.53125,-0.96875 l -4.57813,0 -2.14062,-2.3e-4 0,-1.82789 6.71875,0 c 2.23957,2e-5 3.97395,0.4896 5.20312,1.46875 1.22916,0.96877 1.84374,2.42189 1.84375,4.35937 -10e-6,0.85418 -0.15105,1.62502 -0.45312,2.3125 -0.3021,0.6771 -0.71356,1.25522 -1.23438,1.73438 -0.52084,0.47917 -1.14584,0.86459 -1.875,1.15625 -0.71876,0.29167 -1.50521,0.46876 -2.35937,0.53125 l 6.14062,8.82812"
         id="path4009"
         inkscape:connector-curvature="0"
         sodipodi:nodetypes="ccccccccsccccccccscccsccc" />
      <path
         d="m 477.03766,709.04321 -13.03125,0 0,-20.39062 13.03125,0 0,1.82812 -10.89063,0 0,7.29688 8.03125,0 0,1.82812 -8.03125,0 0,7.60938 10.89063,0 0,1.82812"
         id="path4011"
         inkscape:connector-curvature="0" />
      <path
         d="m 494.53766,701.77759 c -2e-5,1.15625 -0.13022,2.20313 -0.39063,3.14062 -0.25001,0.93751 -0.64584,1.73959 -1.1875,2.40625 -0.53126,0.65625 -1.20834,1.16667 -2.03125,1.53125 -0.82292,0.36459 -1.79688,0.54688 -2.92187,0.54688 -1.13542,0 -2.11459,-0.18229 -2.9375,-0.54688 -0.8125,-0.36458 -1.48438,-0.875 -2.01563,-1.53125 -0.52083,-0.66666 -0.91146,-1.47395 -1.17187,-2.42187 -0.25,-0.94791 -0.375,-2 -0.375,-3.15625 l 0,-13.09375 2.14062,0 0,13.125 c 0,0.61459 0.0521,1.26563 0.15625,1.95312 0.11458,0.68751 0.32813,1.31251 0.64063,1.875 0.32291,0.56251 0.76562,1.03126 1.32812,1.40625 0.57291,0.375 1.31771,0.5625 2.23438,0.5625 0.91666,0 1.66145,-0.1875 2.23437,-0.5625 0.58333,-0.37499 1.03124,-0.84374 1.34375,-1.40625 0.32291,-0.56249 0.53645,-1.18749 0.64063,-1.875 0.10415,-0.68749 0.15624,-1.33853 0.15625,-1.95312 l 0,-13.125 2.15625,0 0,13.125"
         id="path4013"
         inkscape:connector-curvature="0" />
      <path
         d="m 512.28766,703.73071 c -2e-5,0.85417 -0.1771,1.63021 -0.53125,2.32813 -0.35418,0.6875 -0.82814,1.28125 -1.42188,1.78125 -0.59376,0.5 -1.27605,0.88541 -2.04687,1.15625 -0.77084,0.27083 -1.57293,0.40625 -2.40625,0.40625 -1.14584,0 -2.19792,-0.21354 -3.15625,-0.64063 -2.08772,-1.18025 -1.04381,-1.68988 -2.28125,0.28125 l -1.8125,0 0,-6.20312 1.8125,0 c 0,0.69792 0.16145,1.33854 0.48437,1.92187 0.32292,0.57292 0.73438,1.06771 1.23438,1.48438 0.49999,0.41667 1.07291,0.74479 1.71875,0.98437 0.65624,0.22917 1.32291,0.34375 2,0.34375 0.60416,0 1.16145,-0.0833 1.67187,-0.25 0.51041,-0.17708 0.95833,-0.42187 1.34375,-0.73437 0.38541,-0.32292 0.68749,-0.71354 0.90625,-1.17188 0.22916,-0.45833 0.34374,-0.97916 0.34375,-1.5625 -10e-6,-0.65624 -0.14584,-1.21874 -0.4375,-1.6875 -0.28126,-0.46874 -0.66667,-0.86978 -1.15625,-1.20312 -0.47917,-0.33333 -1.02084,-0.61458 -1.625,-0.84375 -0.60417,-0.23958 -1.21875,-0.47395 -1.84375,-0.70313 -0.73959,-0.2604 -1.47917,-0.53124 -2.21875,-0.8125 -0.73958,-0.29165 -1.40104,-0.65624 -1.98437,-1.09375 -0.58334,-0.43749 -1.05729,-0.96873 -1.42188,-1.59375 -0.36458,-0.6354 -0.54687,-1.42186 -0.54687,-2.35937 0,-0.83332 0.17708,-1.5729 0.53125,-2.21875 0.35416,-0.65623 0.81771,-1.20832 1.39062,-1.65625 0.57292,-0.4479 1.23958,-0.78644 2,-1.01563 0.76042,-0.23956 1.54166,-0.35935 2.34375,-0.35937 4.2311,0.15939 3.81374,1.98137 4.70313,0.34375 l 1.89062,0 0,5.82812 -1.89062,0 c -1e-5,-0.61457 -0.13022,-1.18748 -0.39063,-1.71875 -0.25001,-0.54165 -0.59376,-0.99998 -1.03125,-1.375 -0.43751,-0.3854 -0.93751,-0.68748 -1.5,-0.90625 -0.5625,-0.22914 -1.15625,-0.34373 -1.78125,-0.34375 -0.55209,2e-5 -1.07813,0.0625 -1.57812,0.1875 -0.50001,0.12502 -0.93751,0.32815 -1.3125,0.60938 -0.375,0.27085 -0.67709,0.62502 -0.90625,1.0625 -0.21875,0.43751 -0.32813,0.95835 -0.32813,1.5625 0,0.53126 0.13021,0.98439 0.39063,1.35937 0.27083,0.37502 0.6302,0.70835 1.07812,1 0.44792,0.28127 0.96354,0.54168 1.54688,0.78125 0.59374,0.22918 1.19791,0.46356 1.8125,0.70313 0.77082,0.27084 1.53645,0.57293 2.29687,0.90625 0.76041,0.33334 1.4427,0.73438 2.04688,1.20312 0.60415,0.46876 1.09894,1.04689 1.48437,1.73438 0.38541,0.67709 0.57811,1.50521 0.57813,2.48437"
         id="path4015"
         inkscape:connector-curvature="0"
         sodipodi:nodetypes="ccccsccccccscscccccccccccscccccccccccccccscccccccc" />
    </g>
  </g>
</svg>
